<svg width="75" height="75" viewBox="0 0 75 75" fill="none" xmlns="http://www.w3.org/2000/svg">
<path d="M67.9453 70.3125V39.7969C67.9453 38.5312 66.9141 37.4766 65.625 37.4766H46.875V28.125H51.5625V30.9141C51.5625 31.9687 52.4062 32.8125 53.4375 32.8125H61.3828C62.4375 32.8125 63.2812 31.9687 63.2812 30.9375V11.2734C63.2812 10.2187 62.4375 9.375 61.4063 9.375H53.4609C52.4062 9.375 51.5625 10.2187 51.5625 11.2734V14.0625H46.875V6.84375C46.875 5.64844 45.9141 4.6875 44.7187 4.6875H9.1875C7.99219 4.6875 7.03125 5.64844 7.03125 6.84375V70.2656H11.6719V58.6641C11.6719 57.3281 12.75 56.25 14.0859 56.25H39.7734C41.1094 56.25 42.1875 57.3281 42.1875 58.6641V70.3125H39.8672V59.4141C39.8672 58.9688 39.5156 58.5938 39.0469 58.5938H33.7031C33.2578 58.5938 32.8828 58.9453 32.8828 59.4141V70.3125H25.7812H67.9453ZM46.875 63.3047V56.25H50.3906C51.0469 56.25 51.5625 56.7891 51.5625 57.4219V62.1094C51.5625 62.7656 51.0469 63.2813 50.3906 63.3047H46.875ZM46.875 51.5859V44.5312H50.3906C51.0469 44.5312 51.5625 45.0703 51.5625 45.7031V50.3906C51.5625 51.0469 51.0469 51.5625 50.3906 51.5859H46.875ZM51.5625 25.7812H46.875V16.4062H51.5625V25.7812ZM63.2812 45.7031V50.3906C63.2812 51.0469 62.7656 51.5625 62.1094 51.5859H57.375C56.7187 51.5859 56.2031 51.0469 56.2031 50.4141V45.7031C56.2031 45.0469 56.7422 44.5312 57.375 44.5312H62.1094C62.7656 44.5312 63.2812 45.0703 63.2812 45.7031ZM63.2812 57.4219V62.1094C63.2812 62.7656 62.7656 63.2813 62.1094 63.3047H57.375C56.7187 63.3047 56.2031 62.7656 56.2031 62.1328V57.4219C56.2031 56.7656 56.7422 56.25 57.375 56.25H62.1094C62.7656 56.25 63.2812 56.7891 63.2812 57.4219ZM30.4922 10.5469V15.2344C30.4922 15.8906 29.9766 16.4062 29.3203 16.4062H24.5859C23.9297 16.4062 23.4141 15.8672 23.4141 15.2344V10.5469C23.4141 9.89062 23.9531 9.375 24.5859 9.375H29.3203C29.9766 9.375 30.4922 9.91406 30.4922 10.5469ZM30.4922 26.9531C30.4922 27.6094 29.9766 28.125 29.3203 28.125H24.5859C23.9297 28.125 23.4141 27.5859 23.4141 26.9531V22.2656C23.4141 21.6094 23.9531 21.0938 24.5859 21.0938H29.3203C29.9766 21.0938 30.4922 21.6328 30.4922 22.2656V26.9531ZM30.4922 33.9844V38.6719C30.4922 39.3281 29.9766 39.8438 29.3203 39.8672H24.5859C23.9297 39.8672 23.4141 39.3281 23.4141 38.6953V33.9844C23.4141 33.3281 23.9531 32.8125 24.5859 32.8125H29.3203C29.9766 32.8125 30.4922 33.3516 30.4922 33.9844ZM30.4922 45.7031V50.3906C30.4922 51.0469 29.9766 51.5625 29.3203 51.5859H24.5859C23.9297 51.5859 23.4141 51.0469 23.4141 50.4141V45.7031C23.4141 45.0469 23.9531 44.5312 24.5859 44.5312H29.3203C29.9766 44.5312 30.4922 45.0703 30.4922 45.7031ZM42.2344 50.3906C42.2344 51.0469 41.6953 51.5625 41.0625 51.5859H36.3281C35.6719 51.5859 35.1562 51.0469 35.1562 50.4141V45.7031C35.1562 45.0469 35.6953 44.5312 36.3281 44.5312H41.0625C41.7188 44.5312 42.2344 45.0703 42.2344 45.7031V50.3906ZM42.2344 33.9844V38.6719C42.2344 39.3281 41.6953 39.8438 41.0625 39.8672H36.3281C35.6719 39.8672 35.1562 39.3281 35.1562 38.6953V33.9844C35.1562 33.3281 35.6953 32.8125 36.3281 32.8125H41.0625C41.7188 32.8125 42.2344 33.3516 42.2344 33.9844ZM42.2344 26.9531C42.2344 27.6094 41.6953 28.125 41.0625 28.125H36.3281C35.6719 28.125 35.1562 27.5859 35.1562 26.9531V22.2656C35.1562 21.6094 35.6719 21.0938 36.3281 21.0938H41.0625C41.7188 21.0938 42.2344 21.6328 42.2344 22.2656V26.9531ZM42.2344 10.5469V15.2344C42.2344 15.8906 41.6953 16.4062 41.0625 16.4062H36.3281C35.6719 16.4062 35.1562 15.8906 35.1562 15.2344V10.5469C35.1562 9.89062 35.6719 9.375 36.3281 9.375H41.0625C41.7188 9.375 42.2344 9.91406 42.2344 10.5469ZM18.7734 50.3906C18.7734 51.0469 18.2578 51.5625 17.6016 51.5859H12.8672C12.2109 51.5859 11.6953 51.0469 11.6953 50.4141V45.7031C11.6953 45.0469 12.2344 44.5312 12.8672 44.5312H17.6016C18.2578 44.5312 18.7734 45.0703 18.7734 45.7031V50.3906ZM18.7734 33.9844V38.6719C18.7734 39.3281 18.2578 39.8438 17.6016 39.8672H12.8672C12.2109 39.8672 11.6953 39.3281 11.6953 38.6953V33.9844C11.6953 33.3281 12.2344 32.8125 12.8672 32.8125H17.6016C18.2578 32.8125 18.7734 33.3516 18.7734 33.9844ZM18.7734 26.9531C18.7734 27.6094 18.2578 28.125 17.6016 28.125H12.8672C12.2109 28.125 11.6953 27.5859 11.6953 26.9531V22.2656C11.6953 21.6094 12.2344 21.0938 12.8672 21.0938H17.6016C18.2578 21.0938 18.7734 21.6328 18.7734 22.2656V26.9531ZM18.7734 10.5469V15.2344C18.7734 15.8906 18.2578 16.4062 17.6016 16.4062H12.8672C12.2109 16.4062 11.6953 15.8672 11.6953 15.2344V10.5469C11.6953 9.89062 12.2344 9.375 12.8672 9.375H17.6016C18.2578 9.375 18.7734 9.91406 18.7734 10.5469Z" fill="#121212"/>
<path d="M30.4688 70.3125H23.4844V59.4141C23.4844 58.9453 23.8594 58.5938 24.3047 58.5938H29.6484C30.0937 58.5938 30.4688 58.9453 30.4688 59.4141V70.3125ZM21.0469 59.4141V70.3125H14.0625V59.4141C14.0625 58.9453 14.4141 58.5938 14.8828 58.5938H20.2266C20.6953 58.5938 21.0469 58.9688 21.0469 59.4141Z" fill="#121212"/>
</svg>
