<svg width="392" height="103" viewBox="0 0 392 103" fill="none" xmlns="http://www.w3.org/2000/svg">
<path d="M55.7248 8.58325H16.7114V94.4166L55.7248 8.58325Z" fill="#FA0F00"/>
<path d="M122.175 8.58325H83.193L122.175 94.4166V8.58325Z" fill="#FA0F00"/>
<path fill-rule="evenodd" clip-rule="evenodd" d="M230.633 39.8033C215.887 39.8033 207.266 48.6911 207.266 59.2868C207.266 71.8882 216.448 78.1089 228.373 78.1089C233.828 78.1147 239.228 77.1062 244.248 75.1439C244.73 74.9985 244.809 74.8459 244.809 74.4753C244.572 72.6815 244.464 70.8753 244.485 69.0685V25.2834C244.485 24.9854 244.406 24.8401 244.003 24.8401H233.849C233.773 24.8319 233.696 24.8397 233.624 24.8627C233.552 24.8858 233.487 24.9235 233.433 24.9732C233.379 25.0228 233.338 25.083 233.312 25.1493C233.287 25.2157 233.279 25.2863 233.288 25.3561V39.9487C232.92 39.9265 232.589 39.9044 232.289 39.8843C231.603 39.8385 231.078 39.8033 230.633 39.8033ZM230.309 48.4005C231.318 48.3566 232.328 48.4822 233.288 48.7711V68.8505C232.062 69.1934 230.783 69.3433 229.503 69.2938C223.378 69.2938 218.787 66.1034 218.787 58.7708C218.787 51.8815 224.105 48.4005 230.309 48.4005Z" fill="#FA0F00"/>
<path fill-rule="evenodd" clip-rule="evenodd" d="M167.676 76.7717L171.54 65.8127H190.118L194.227 76.8516C194.281 77.0237 194.402 77.1714 194.566 77.2666C194.731 77.3619 194.928 77.3978 195.12 77.3676H205.575C206.057 77.3676 206.136 77.0697 205.978 76.699L187.692 29.2803C187.605 28.9097 187.447 28.837 187.044 28.837H174.156C174.019 28.8499 173.892 28.9106 173.803 29.0066C173.713 29.1026 173.667 29.2266 173.674 29.353C173.687 30.8898 173.42 32.4178 172.883 33.8732L156.771 76.6409C156.684 77.0697 156.85 77.3676 157.411 77.3676H166.791C166.99 77.3769 167.187 77.3228 167.348 77.2142C167.51 77.1057 167.625 76.9494 167.676 76.7717ZM184.865 49.7359L184.868 49.7444C185.751 52.3108 186.578 54.7145 187.171 56.547H174.408C174.563 56.1095 174.721 55.661 174.882 55.2035C176.946 49.3542 179.528 42.0376 180.73 37.4341H180.809C181.762 40.7196 183.389 45.4474 184.861 49.726L184.862 49.7286L184.863 49.731L184.864 49.7334L184.864 49.7342L184.865 49.7359Z" fill="#FA0F00"/>
<path fill-rule="evenodd" clip-rule="evenodd" d="M290.627 58.7708C290.627 70.3984 282.408 78.1089 270.808 78.1089C257.026 78.1089 250.91 68.5525 250.91 58.9961C250.91 48.4731 258.559 39.8033 270.966 39.8033C283.941 39.8033 290.627 48.7711 290.627 58.7708ZM262.265 58.8435C262.265 65.384 265.569 69.5118 270.958 69.5118C275.636 69.5118 279.176 65.8127 279.176 58.9961C279.176 53.1823 276.6 48.4004 270.484 48.4004C265.814 48.4004 262.265 52.2521 262.265 58.8435Z" fill="#FA0F00"/>
<path fill-rule="evenodd" clip-rule="evenodd" d="M308.351 25.4287C308.351 24.9127 308.201 24.8401 307.561 24.8401H297.723C297.32 24.8401 297.162 24.9854 297.162 25.356V75.6744C297.166 75.8236 297.213 75.9692 297.298 76.0966C297.382 76.2241 297.502 76.329 297.644 76.4011C301.739 77.5606 306.003 78.1365 310.287 78.1089C322.528 78.1089 334.453 71.2922 334.453 57.4336C334.453 47.5066 326.969 39.8033 315.116 39.8033C312.832 39.8004 310.558 40.0741 308.351 40.6172V25.4287ZM308.351 49.1417C309.891 48.7282 311.489 48.5274 313.093 48.5458H313.116C318.759 48.5458 323.026 51.6562 323.01 58.4365C323.01 66.1398 317.455 69.5481 311.331 69.5481C310.329 69.5594 309.329 69.4618 308.351 69.2574V49.1417Z" fill="#FA0F00"/>
<path fill-rule="evenodd" clip-rule="evenodd" d="M350.217 61.6631C350.62 65.8854 353.845 69.3664 361.739 69.3664C365.134 69.4265 368.507 68.8453 371.648 67.6586C371.893 67.5132 372.13 67.5859 372.13 68.0292V75.0712C372.13 75.5871 371.972 75.7979 371.569 75.9578C368.345 77.3676 364.805 78.1379 359.242 78.1379C344.093 78.1379 338.783 68.5815 338.783 59.3957C338.783 49.1707 345.626 39.8323 358.278 39.8323C370.439 39.8323 375.275 48.5022 375.275 55.8203C375.332 57.4832 375.197 59.147 374.872 60.7838C374.861 60.9385 374.789 61.0842 374.67 61.1938C374.551 61.3034 374.393 61.3695 374.224 61.3797C371.467 61.6193 368.697 61.7188 365.927 61.6776L350.217 61.6631ZM360.696 54.4758C362.039 54.521 363.384 54.47 364.718 54.3232V53.8072C364.695 53.0071 364.498 52.2193 364.14 51.4897C363.782 50.7602 363.27 50.1036 362.633 49.5583C361.995 49.0129 361.247 48.5898 360.43 48.3137C359.613 48.0375 358.744 47.9138 357.875 47.9498C352.801 47.9498 350.62 51.4381 350.138 54.4904L360.696 54.4758Z" fill="#FA0F00"/>
<path d="M94.2955 94.4166L69.4588 40.2175L52.4137 77.1569H70.5888L78.0169 94.4166H94.2955Z" fill="#FA0F00"/>
</svg>
