<svg width="494" height="71" viewBox="0 0 494 71" fill="none" xmlns="http://www.w3.org/2000/svg">
<path d="M27.2632 32.9045C27.0905 32.6772 26.8625 32.4985 26.6011 32.3858C26.3397 32.273 26.0539 32.23 25.7711 32.261C25.4884 32.2919 25.2184 32.3956 24.9872 32.5622C24.756 32.7288 24.5714 32.9525 24.4513 33.2119L10.203 61.8727C10.0732 62.1339 10.0119 62.4241 10.0249 62.7158C10.038 63.0076 10.1249 63.2911 10.2775 63.5395C10.4301 63.788 10.6433 63.993 10.8968 64.1352C11.1503 64.2775 11.4358 64.3521 11.726 64.3522H31.5661C31.8839 64.3596 32.1969 64.274 32.4673 64.1059C32.7377 63.9378 32.9537 63.6943 33.0892 63.405C37.3689 54.5076 34.7753 40.9793 27.2632 32.9045Z" fill="url(#paint0_linear_142_42)"/>
<path d="M37.7134 6.83619C34.1631 12.3321 32.0942 18.6623 31.7096 25.2055C31.325 31.7487 32.638 38.2801 35.5197 44.1586L45.0848 63.405C45.2262 63.6896 45.4436 63.929 45.7126 64.0963C45.9816 64.2635 46.2916 64.3522 46.6078 64.3522H66.4444C66.7346 64.3522 67.0201 64.2775 67.2736 64.1353C67.5271 63.9931 67.7403 63.788 67.8929 63.5396C68.0455 63.2912 68.1324 63.0076 68.1455 62.7159C68.1585 62.4242 68.0972 62.1339 67.9674 61.8727C67.9674 61.8727 41.2806 8.16869 40.6099 6.82544C40.4773 6.55202 40.2708 6.32174 40.0141 6.16101C39.7573 6.00029 39.4607 5.91564 39.1583 5.91676C38.8559 5.91788 38.56 6.00474 38.3044 6.16736C38.0488 6.32998 37.844 6.56179 37.7134 6.83619Z" fill="#2684FF"/>
<path d="M270.386 29.8165C270.386 36.9136 273.658 42.5482 286.458 45.0358C294.095 46.6488 295.695 47.889 295.695 50.45C295.695 52.9376 294.092 54.5479 288.713 54.5479C282.212 54.4303 275.841 52.6959 270.168 49.4993V61.0589C274.023 62.9613 279.113 65.0833 288.568 65.0833C301.949 65.0833 307.259 59.0795 307.259 50.157C307.259 41.7427 302.822 37.7909 290.313 35.0846C283.404 33.5478 281.732 32.0119 281.732 29.8165C281.732 27.0386 284.204 25.8656 288.786 25.8656C294.313 25.8656 299.768 27.5485 304.931 29.89V18.8411C299.98 16.5739 294.588 15.4491 289.149 15.5488C276.786 15.5488 270.386 20.963 270.386 29.8165Z" fill="#0052CC"/>
<path d="M442.305 16.28V64.3521H452.486V27.6945L456.777 37.4253L471.177 64.3521H483.977V16.28H473.796V47.3038L469.941 38.3034L458.377 16.28H442.305Z" fill="#0052CC"/>
<path d="M366.419 16.28H377.546V64.3521H366.419V16.28Z" fill="#0052CC"/>
<path d="M353.58 50.157C353.58 41.7427 349.143 37.7909 336.634 35.0846C329.725 33.5478 328.053 32.0119 328.053 29.8165C328.053 27.0386 330.525 25.8656 335.107 25.8656C340.634 25.8656 346.089 27.5485 351.252 29.89V18.8411C346.301 16.5739 340.909 15.4491 335.47 15.5488C323.107 15.5488 316.707 20.963 316.707 29.8165C316.707 36.9136 319.979 42.5482 332.779 45.0358C340.416 46.6488 342.016 47.889 342.016 50.45C342.016 52.9376 340.413 54.5479 335.034 54.5479C328.533 54.4303 322.162 52.6959 316.489 49.4993V61.0589C320.344 62.9613 325.434 65.0833 334.889 65.0833C348.27 65.0833 353.58 59.0795 353.58 50.157Z" fill="#0052CC"/>
<path d="M183.945 64.3521V16.28H195.145V53.9618H210.417L206.816 64.3521H183.945Z" fill="#0052CC"/>
<path d="M138.759 16.28V26.6694H151.122V64.3521H162.322V26.6694H175.558V16.28H138.759Z" fill="#0052CC"/>
<path fill-rule="evenodd" clip-rule="evenodd" d="M107.841 16.28H122.519L139.175 64.3521H126.448L124.086 56.2559C118.269 57.9744 112.083 57.9744 106.265 56.2559L103.903 64.3521H91.179L107.841 16.28ZM109.056 46.7008C111.045 47.2885 113.107 47.5869 115.179 47.587C117.252 47.5892 119.314 47.2932 121.303 46.7079L115.179 25.7222L109.056 46.7008Z" fill="#0052CC"/>
<path fill-rule="evenodd" clip-rule="evenodd" d="M246.245 16.28H231.568L214.906 64.3521H227.633L229.995 56.2559C235.813 57.9744 241.998 57.9744 247.816 56.2559L250.178 64.3521H262.905L246.245 16.28ZM238.906 47.587C236.834 47.5869 234.772 47.2885 232.783 46.7008L238.906 25.7222L245.03 46.7079C243.041 47.2932 240.979 47.5892 238.906 47.587Z" fill="#0052CC"/>
<path fill-rule="evenodd" clip-rule="evenodd" d="M402.966 16.28H417.643L434.304 64.3521H421.577L419.214 56.2559C413.397 57.9744 407.211 57.9744 401.393 56.2559L399.031 64.3521H386.304L402.966 16.28ZM404.177 46.7008C406.166 47.2885 408.228 47.5869 410.3 47.587C412.373 47.5892 414.435 47.2932 416.424 46.7079L410.3 25.7222L404.177 46.7008Z" fill="#0052CC"/>
<defs>
<linearGradient id="paint0_linear_142_42" x1="35.0719" y1="37.3277" x2="19.8983" y2="63.4509" gradientUnits="userSpaceOnUse">
<stop stop-color="#0052CC"/>
<stop offset="0.923" stop-color="#2684FF"/>
</linearGradient>
</defs>
</svg>
