<svg width="75" height="75" viewBox="0 0 75 75" fill="none" xmlns="http://www.w3.org/2000/svg">
<path d="M18.8969 29.2969C21.3833 29.2969 23.7679 28.3092 25.526 26.551M18.8969 29.2969C16.4105 29.2969 14.0259 28.3092 12.2678 26.551M18.8969 29.2969V36.3281M25.526 26.551C27.2842 24.7928 28.2719 22.4083 28.2719 19.9219M25.526 26.551L30.4969 31.5219M28.2719 19.9219C28.2719 17.4355 27.2842 15.0509 25.526 13.2927M28.2719 19.9219H35.3031M25.526 13.2927C23.7679 11.5346 21.3833 10.5469 18.8969 10.5469M25.526 13.2927L30.4969 8.32187M18.8969 10.5469C16.4105 10.5469 14.0259 11.5346 12.2678 13.2927M18.8969 10.5469V3.51562M12.2678 13.2927C10.5096 15.0509 9.52188 17.4355 9.52188 19.9219M12.2678 13.2927L7.29688 8.32187M9.52188 19.9219C9.52188 22.4083 10.5096 24.7928 12.2678 26.551M9.52188 19.9219H2.49063M12.2678 26.551L7.29688 31.5219M17.3344 3.51562H20.4594M29.3938 7.21562L31.6031 9.425M35.3031 18.3594V21.4844M31.6031 30.4187L29.3938 32.6281M20.4594 36.3281H17.3344M8.40001 32.6281L6.19063 30.4187M2.49063 21.4844V18.3594M6.19063 9.425L8.40001 7.21562M56.7063 28.4375C58.7426 30.1644 60.3958 32.2977 61.5597 34.7007C62.7237 37.1037 63.3728 39.7233 63.4655 42.3917C63.5582 45.0601 63.0923 47.7185 62.0979 50.1964C61.1034 52.6744 59.6023 54.9172 57.6906 56.7812C53.9547 60.428 48.941 62.4693 43.7203 62.4693C38.4996 62.4693 33.4859 60.428 29.75 56.7812C27.5145 54.5883 25.8439 51.8861 24.8813 48.9062" stroke="#121212" stroke-width="1.5" stroke-linecap="round" stroke-linejoin="round"/>
<path d="M50.4719 34.5437C49.9387 35.0654 49.2225 35.3575 48.4766 35.3575C47.7307 35.3575 47.0144 35.0654 46.4812 34.5437L42.5 30.625C42.2382 30.3702 42.0302 30.0655 41.8881 29.729C41.7461 29.3925 41.6729 29.0309 41.6729 28.6656C41.6729 28.3003 41.7461 27.9387 41.8881 27.6022C42.0302 27.2657 42.2382 26.961 42.5 26.7062L54.475 14.9437C55.0089 14.4235 55.7249 14.1324 56.4703 14.1324C57.2157 14.1324 57.9317 14.4235 58.4656 14.9437L62.4562 18.8656C62.718 19.1204 62.926 19.425 63.0681 19.7616C63.2102 20.0981 63.2834 20.4597 63.2834 20.825C63.2834 21.1902 63.2102 21.5518 63.0681 21.8884C62.926 22.2249 62.718 22.5295 62.4562 22.7843L50.4719 34.5437Z" stroke="#121212" stroke-width="1.5" stroke-linecap="round" stroke-linejoin="round"/>
<path d="M59.9 16.3625L67.9938 8.26245M67.9938 8.26245L63.4781 3.74683M67.9938 8.26245L72.5094 12.7781M18.1156 48.9062H33.9219M20.5781 71.4843H63.4781M43.1563 62.4531V71.4843" stroke="#121212" stroke-width="1.5" stroke-linecap="round" stroke-linejoin="round"/>
</svg>
