<svg width="152" height="152" viewBox="0 0 152 152" fill="none" xmlns="http://www.w3.org/2000/svg">
<path d="M112.1 58.14C114.418 55.2995 113.943 51.167 111.055 48.8965C108.167 46.626 103.939 47.0915 101.631 49.9225L70.1859 88.4925L53.3709 75.5725C51.9973 74.4546 50.2415 73.9173 48.4775 74.0753C46.7136 74.2332 45.081 75.0738 43.9279 76.418C43.3645 77.0772 42.939 77.8427 42.6765 78.6691C42.414 79.4956 42.3198 80.3663 42.3995 81.2298C42.4792 82.0933 42.7312 82.932 43.1406 83.6965C43.55 84.4609 44.1084 85.1355 44.7829 85.6805L66.8229 102.875C68.2147 104.008 69.9978 104.543 71.783 104.365C73.5683 104.187 75.2106 103.31 76.3514 101.925L112.071 58.0355L112.1 58.14Z" fill="#121212"/>
<path fill-rule="evenodd" clip-rule="evenodd" d="M61.8452 6.78316C66.9182 3.05916 69.4547 1.19716 72.2002 0.475158C74.6535 -0.147318 77.2234 -0.147318 79.6767 0.475158C82.4507 1.19716 84.9967 3.05916 90.0317 6.78316L96.4632 11.5047C98.2207 12.7967 99.1042 13.4427 100.054 13.9462C100.903 14.3895 101.786 14.7568 102.705 15.0482C103.74 15.3617 104.814 15.5232 106.97 15.8557L114.855 17.0622C121.078 18.0122 124.184 18.4967 126.635 19.9502C128.82 21.2327 130.644 23.0567 131.927 25.2417C133.38 27.7117 133.855 30.8277 134.815 37.0217L136.021 44.9067C136.354 47.0632 136.515 48.1462 136.829 49.1817C137.114 50.1 137.481 50.9803 137.931 51.8227C138.444 52.7727 139.08 53.6562 140.372 55.4137L145.094 61.8452C148.818 66.9182 150.68 69.4547 151.402 72.2002C152.024 74.6535 152.024 77.2234 151.402 79.6767C150.689 82.4507 148.818 84.9967 145.094 90.0317L140.372 96.4632C139.468 97.5963 138.652 98.7968 137.931 100.054C137.48 100.904 137.111 101.795 136.829 102.714C136.515 103.74 136.354 104.814 136.021 106.97L134.815 114.855C133.865 121.078 133.38 124.184 131.927 126.635C130.644 128.82 128.82 130.644 126.635 131.927C124.165 133.38 121.049 133.855 114.855 134.815L106.97 136.021C105.53 136.185 104.104 136.458 102.705 136.838C101.786 137.117 100.903 137.484 100.054 137.94C99.1042 138.444 98.2207 139.08 96.4632 140.382L90.0317 145.103C84.9587 148.827 82.4222 150.689 79.6767 151.411C77.2234 152.034 74.6535 152.034 72.2002 151.411C69.4262 150.689 66.8802 148.827 61.8452 145.103L55.4137 140.382C54.2805 139.478 53.08 138.661 51.8227 137.94C50.9759 137.49 50.0884 137.121 49.1722 136.838C47.7732 136.458 46.3472 136.185 44.9067 136.021L37.0217 134.815C30.7992 133.865 27.6832 133.39 25.2417 131.927C23.0644 130.631 21.2455 128.812 19.9502 126.635C18.4967 124.165 18.0217 121.049 17.0622 114.855L15.8557 106.97C15.5232 104.814 15.3617 103.74 15.0482 102.705C14.771 101.786 14.4018 100.898 13.9462 100.054C13.2248 98.7968 12.4086 97.5963 11.5047 96.4632L6.78316 90.0317C3.05916 84.9587 1.19716 82.4317 0.475158 79.6767C-0.147318 77.2234 -0.147318 74.6535 0.475158 72.2002C1.18766 69.4262 3.05916 66.8802 6.78316 61.8452L11.5047 55.4137C12.7967 53.6562 13.4427 52.7727 13.9462 51.8227C14.3895 50.9803 14.7568 50.0968 15.0482 49.1722C15.3617 48.1367 15.5232 47.0632 15.8557 44.9067L17.0622 37.0217C18.0122 30.7992 18.4967 27.6832 19.9502 25.2417C21.2327 23.0567 23.0567 21.2517 25.2417 19.9502C27.7117 18.4967 30.8277 18.0217 37.0217 17.0622L44.9067 15.8557C47.0632 15.5327 48.1462 15.3617 49.1722 15.0482C50.0905 14.7632 50.974 14.3958 51.8227 13.9462C52.7727 13.4427 53.6562 12.7967 55.4137 11.5047L61.8452 6.78316ZM84.4552 14.4402L91.2097 19.3992C92.6442 20.4537 94.0597 21.4987 95.6367 22.3347C97.03 23.0757 98.474 23.6742 99.9687 24.1302C101.677 24.6027 103.417 24.955 105.175 25.1847L113.459 26.4577C120.498 27.5407 121.372 27.8352 121.885 28.1392C122.689 28.6205 123.329 29.2602 123.804 30.0582C124.108 30.5712 124.412 31.4452 125.486 38.4847L126.759 46.7687C126.988 48.5265 127.341 50.2661 127.813 51.9747C128.275 53.482 128.874 54.926 129.609 56.3067C130.445 57.8837 131.49 59.2992 132.544 60.7337L137.503 67.4882C141.721 73.2262 142.12 74.0527 142.272 74.6417C142.491 75.5341 142.491 76.4662 142.272 77.3587C142.12 77.9382 141.721 78.7647 137.503 84.5122L132.544 91.2667C131.49 92.7012 130.445 94.1167 129.609 95.6937C128.874 97.0774 128.273 98.528 127.813 100.026C127.341 101.734 126.988 103.474 126.759 105.232L125.486 113.516C124.403 120.555 124.108 121.429 123.804 121.942C123.328 122.727 122.67 123.385 121.885 123.861C121.372 124.165 120.498 124.469 113.459 125.543L105.175 126.816C103.417 127.045 101.677 127.398 99.9687 127.87C98.471 128.33 97.0204 128.931 95.6367 129.666C94.0597 130.502 92.6442 131.547 91.2097 132.601L84.4552 137.56C78.7172 141.778 77.8907 142.177 77.3017 142.329C76.4092 142.548 75.4771 142.548 74.5847 142.329C74.0052 142.177 73.1787 141.778 67.4312 137.56L60.6767 132.601C59.2713 131.521 57.792 130.54 56.2497 129.666C54.8659 128.931 53.4153 128.33 51.9177 127.87C50.209 127.398 48.4695 127.045 46.7117 126.816L38.4277 125.543C31.3882 124.46 30.5142 124.165 30.0012 123.861C29.2163 123.385 28.558 122.727 28.0822 121.942C27.7782 121.429 27.4742 120.555 26.4007 113.516L25.1277 105.232C24.898 103.474 24.5457 101.734 24.0732 100.026C23.6134 98.528 23.0122 97.0774 22.2777 95.6937C21.4417 94.1167 20.3967 92.7012 19.3422 91.2667L14.3832 84.5122C10.1652 78.7742 9.76616 77.9477 9.61416 77.3587C9.39515 76.4662 9.39515 75.5341 9.61416 74.6417C9.76616 74.0622 10.1652 73.2357 14.3832 67.4882L19.3422 60.7337C20.3967 59.2992 21.4417 57.8837 22.2777 56.3067C23.0123 54.9133 23.6108 53.4693 24.0732 51.9747C24.5457 50.2661 24.898 48.5265 25.1277 46.7687L26.4007 38.4847C27.4837 31.4452 27.7782 30.5712 28.0822 30.0582C28.558 29.2733 29.2163 28.615 30.0012 28.1392C30.5142 27.8352 31.3882 27.5312 38.4277 26.4577L46.7117 25.1847C48.4695 24.955 50.209 24.6027 51.9177 24.1302C53.425 23.6678 54.869 23.0693 56.2497 22.3347C57.8267 21.4987 59.2422 20.4537 60.6767 19.3992L67.4312 14.4402C73.1692 10.2222 73.9957 9.82316 74.5847 9.67116C75.4771 9.45215 76.4092 9.45215 77.3017 9.67116C77.8812 9.82316 78.7077 10.2222 84.4552 14.4402Z" fill="#121212"/>
</svg>
