<svg width="64" height="44" viewBox="0 0 64 44" fill="none" xmlns="http://www.w3.org/2000/svg">
<path d="M32 12H20V24H32V12ZM36 32V36H16V32H36ZM36 8V28H16V8H36ZM56 32V36H40V32H56ZM56 24V28H40V24H56ZM56 16V20H40V16H56ZM56 8V12H40V8H56ZM8 38V8H4V38C4 38.5417 4.19792 39.0104 4.59375 39.4062C4.98958 39.8021 5.45833 40 6 40C6.54167 40 7.01042 39.8021 7.40625 39.4062C7.80208 39.0104 8 38.5417 8 38ZM60 38V4H12V38C12 38.6875 11.8854 39.3542 11.6562 40H58C58.5417 40 59.0104 39.8021 59.4062 39.4062C59.8021 39.0104 60 38.5417 60 38ZM64 0V38C64 39.6667 63.4167 41.0833 62.25 42.25C61.0833 43.4167 59.6667 44 58 44H6C4.33333 44 2.91667 43.4167 1.75 42.25C0.583333 41.0833 0 39.6667 0 38V4H8V0H64Z" fill="#121212"/>
</svg>
