<svg width="301" height="301" viewBox="0 0 301 301" fill="none" xmlns="http://www.w3.org/2000/svg">
<g clip-path="url(#clip0_142_20)">
<path d="M300.942 124.575C300.908 124.462 300.874 124.35 300.829 124.238C274.255 124.249 247.692 124.238 221.128 124.249C221.061 124.328 221.016 124.406 221.005 124.507C221.005 145.114 221.005 165.709 220.994 186.316C221.162 187.415 221.768 188.414 222.576 189.165C222.609 189.177 222.688 189.188 222.721 189.199C223.136 189.636 223.731 189.85 224.292 190.052C224.707 190.029 225.111 190.209 225.526 190.164H258.505C258.82 190.152 259.145 190.209 259.448 190.085C259.459 190.041 259.47 189.962 259.481 189.917C259.493 189.861 259.504 189.738 259.515 189.67C260.222 185.722 260.906 181.762 261.658 177.813L261.725 177.309C258.674 177.297 255.611 177.309 252.56 177.297C251.82 177.275 251.057 177.297 250.317 177.207C249.049 177.151 247.77 177.196 246.503 177.073C244.932 177.073 243.373 176.927 241.803 176.927C240.569 176.804 239.324 176.849 238.078 176.792C237.271 176.692 236.441 176.736 235.622 176.703C234.287 176.557 232.93 176.658 231.595 176.512C230.182 176.523 228.768 176.4 227.355 176.366C227.366 176.355 227.377 176.31 227.377 176.299C227.848 176.31 228.308 176.276 228.779 176.265C229.823 176.13 230.877 176.22 231.92 176.074C233.008 176.074 234.085 175.929 235.173 175.929C236.138 175.794 237.114 175.873 238.078 175.738C239.212 175.738 240.322 175.592 241.455 175.581C242.386 175.457 243.329 175.525 244.26 175.401C245.348 175.413 246.425 175.244 247.513 175.256C248.578 175.132 249.666 175.166 250.732 175.053C250.631 174.639 250.552 174.224 250.463 173.808C250.384 173.55 250.07 173.606 249.868 173.573C247.434 173.225 245.011 172.877 242.588 172.541C242.745 172.417 242.958 172.473 243.138 172.451C245.022 172.305 246.896 172.137 248.78 172.002C249.207 171.98 249.622 171.901 250.048 171.89C249.857 171.307 249.745 170.667 249.487 170.129C245.46 169.512 241.433 168.962 237.417 168.3C238.46 168.132 239.515 168.054 240.558 167.942L240.648 167.908C243.979 167.56 247.322 167.167 250.654 166.842C254.882 166.82 259.1 166.831 263.33 166.842C263.464 166.82 263.7 166.887 263.722 166.696C264.07 164.879 264.406 163.062 264.754 161.244C265.236 158.721 265.999 156.23 267.177 153.931C269.028 150.229 271.956 147.088 275.523 145.002C278.854 143.05 282.713 142.107 286.55 141.928C287.795 141.816 289.051 141.849 290.285 142.006C291.093 142.197 291.923 142.422 292.562 142.971C293.09 143.397 293.404 144.026 293.639 144.654C294.155 146.146 294.447 147.694 294.694 149.253C294.705 149.881 294.817 150.588 294.481 151.16C294.166 151.721 293.538 151.99 292.944 152.158C290.779 152.719 288.513 152.192 286.348 152.719C284.564 153.101 282.904 154.088 281.771 155.512C280.436 157.173 279.729 159.236 279.337 161.301C279.034 163.14 278.653 164.98 278.35 166.831C280.481 166.842 282.624 166.82 284.766 166.842C285.619 166.842 286.494 167.313 286.841 168.121C287.29 169.153 287.189 170.32 287.043 171.408C286.864 172.63 286.572 173.842 286.022 174.964C285.562 175.917 284.8 176.792 283.757 177.129C283.218 177.342 282.635 177.297 282.063 177.297C280.178 177.297 278.293 177.319 276.409 177.297C276.106 178.677 275.904 180.09 275.635 181.492C275.142 184.218 274.659 186.955 274.165 189.692C274.154 189.782 274.143 189.973 274.143 190.074C275.029 190.119 275.915 190.074 276.802 190.096C283.375 190.096 289.96 190.085 296.545 190.096C297.251 190.119 297.969 189.95 298.586 189.603C298.956 189.468 299.181 189.143 299.506 188.963C299.82 188.784 299.91 188.414 300.179 188.178C300.471 187.662 300.774 187.124 300.796 186.518C300.83 186.518 300.919 186.507 300.964 186.495C300.93 165.855 300.964 145.215 300.942 124.575Z" fill="url(#paint0_linear_142_20)" stroke="#FCD109" stroke-width="0.0280253"/>
<path d="M231.46 111.001C232.413 110.698 233.412 110.9 234.388 110.833C252.706 110.844 271.025 110.833 289.343 110.833C290.431 110.788 291.384 111.405 292.394 111.719C293.201 112.044 294.043 112.303 294.85 112.65C295.019 112.718 295.142 112.863 295.265 112.987C295.254 114.467 295.265 115.959 295.265 117.451C295.277 117.844 295.209 118.248 295.344 118.629C295.58 118.663 295.703 118.842 295.86 118.988C296.6 119.325 297.228 119.874 297.901 120.323C298.911 121.041 299.988 121.669 300.975 122.41C301.02 122.701 300.986 123.004 300.897 123.273C300.796 123.587 300.863 123.924 300.829 124.238C274.255 124.249 247.691 124.238 221.128 124.249C221.072 123.879 221.173 123.509 221.016 123.161C220.994 122.869 220.893 122.488 221.173 122.286C222.295 121.501 223.484 120.794 224.583 119.964C225.268 119.527 225.929 119.078 226.591 118.629C226.726 118.405 226.681 118.124 226.681 117.878C226.681 116.251 226.681 114.625 226.692 112.998C227.073 112.504 227.735 112.448 228.262 112.202C229.329 111.798 230.405 111.405 231.46 111.001ZM231.527 111.192C230.091 111.742 228.644 112.269 227.208 112.819C227.018 112.852 226.917 113.02 226.816 113.166C226.827 113.256 226.838 113.413 226.838 113.503C226.827 114.849 226.838 116.195 226.827 117.541C226.838 117.878 226.793 118.214 226.917 118.517C226.771 118.663 226.614 118.809 226.434 118.921C224.808 119.975 223.237 121.12 221.611 122.163C221.33 122.331 221.016 122.555 221.106 122.926C221.05 123.127 221.151 123.296 221.364 123.24C224.886 123.217 228.397 123.262 231.92 123.206C237.158 123.206 242.386 123.217 247.624 123.206L247.703 123.172C247.938 123.228 248.174 123.206 248.421 123.206C257.911 123.206 267.401 123.217 276.902 123.206C279.886 123.217 282.881 123.206 285.876 123.206C290.812 123.206 295.759 123.251 300.695 123.228C300.84 123.195 300.885 123.094 300.829 122.914C300.818 122.735 300.885 122.488 300.695 122.376C299.909 122.006 299.236 121.434 298.485 120.985C298.216 120.761 297.868 120.637 297.666 120.334C296.892 119.897 296.174 119.358 295.411 118.876C295.265 118.786 295.153 118.64 295.03 118.517C295.097 118.281 295.119 118.023 295.119 117.777C295.108 116.352 295.119 114.927 295.108 113.503C295.142 113.278 295.131 113.02 294.929 112.875C293.582 112.392 292.248 111.876 290.913 111.383C290.498 111.181 290.038 111.069 289.589 111.001H232.256C232.01 111.012 231.774 111.136 231.527 111.192Z" fill="#F8F3B5" stroke="#F8F3B5" stroke-width="0.0280253"/>
<path d="M226.838 113.503C227.825 113.918 228.879 114.153 229.878 114.557C230.417 114.77 230.585 115.354 230.82 115.825C230.585 116.06 230.304 116.251 230.024 116.43C228.992 117.126 227.937 117.799 226.916 118.517C226.793 118.214 226.838 117.878 226.827 117.541C226.838 116.195 226.827 114.849 226.838 113.503ZM292.068 114.557C293.067 114.165 294.11 113.895 295.108 113.503C295.12 114.927 295.108 116.352 295.12 117.777C295.12 118.023 295.097 118.281 295.03 118.517C294.155 117.911 293.269 117.339 292.394 116.745C291.967 116.43 291.496 116.195 291.115 115.814C291.35 115.342 291.53 114.77 292.068 114.557Z" fill="#F7B402" stroke="#F7B402" stroke-width="0.0280253"/>
<path d="M243.956 115.017C245.19 114.726 246.57 115.825 246.469 117.115C246.48 118.382 245.145 119.414 243.922 119.123C243.429 118.955 242.958 118.697 242.655 118.259C242.262 117.665 242.172 116.868 242.487 116.217C242.711 115.589 243.317 115.163 243.956 115.017ZM275.96 115.724C276.476 115.152 277.295 114.826 278.058 115.028C278.63 115.197 279.191 115.567 279.437 116.128C279.931 117.092 279.55 118.394 278.585 118.898C277.732 119.37 276.655 119.145 276.005 118.461C275.343 117.709 275.298 116.475 275.96 115.724Z" fill="#BDA727" stroke="#BDA727" stroke-width="0.0280253"/>
<path d="M230.024 116.43C230.304 116.251 230.585 116.06 230.821 115.825L230.899 115.903C230.977 116.487 230.921 117.081 230.944 117.664C230.91 119.414 230.977 121.175 230.899 122.925C227.635 122.925 224.37 122.903 221.106 122.925C221.016 122.555 221.33 122.331 221.611 122.163C223.237 121.119 224.808 119.975 226.434 118.921C226.614 118.809 226.771 118.663 226.917 118.517C227.937 117.799 228.992 117.126 230.024 116.43ZM291.003 116.206C291.003 116.06 291.036 115.937 291.115 115.813C291.496 116.195 291.967 116.43 292.394 116.745C293.268 117.339 294.155 117.911 295.03 118.517C295.153 118.64 295.265 118.786 295.411 118.876C296.174 119.358 296.892 119.897 297.666 120.334C297.868 120.637 298.215 120.76 298.485 120.985C299.236 121.433 299.909 122.006 300.695 122.376C300.885 122.488 300.818 122.735 300.829 122.914C297.565 122.925 294.311 122.903 291.047 122.925C290.991 122.477 291.025 122.028 291.014 121.591C291.014 119.796 290.992 118.001 291.003 116.206Z" fill="#F7E62D" stroke="#F7E62D" stroke-width="0.0280253"/>
<path d="M300.829 122.914C297.565 122.926 294.312 122.903 291.048 122.926C290.992 122.477 291.025 122.028 291.014 121.591C291.014 119.796 290.992 118.001 291.003 116.206C291.003 116.06 291.037 115.937 291.115 115.814C291.351 115.342 291.53 114.77 292.068 114.557C293.067 114.165 294.11 113.895 295.108 113.503C295.142 113.278 295.131 113.02 294.929 112.875C293.583 112.392 292.248 111.876 290.913 111.383C290.498 111.181 290.038 111.069 289.589 111.001H232.256C232.009 111.012 231.774 111.136 231.527 111.192C230.091 111.742 228.644 112.269 227.208 112.818C227.018 112.852 226.916 113.02 226.816 113.166C226.827 113.256 226.838 113.413 226.838 113.503C227.825 113.918 228.879 114.153 229.878 114.557C230.416 114.77 230.585 115.354 230.82 115.825L230.899 115.903C230.977 116.487 230.921 117.081 230.943 117.664C230.91 119.414 230.977 121.176 230.899 122.926C227.634 122.926 224.37 122.903 221.106 122.926C221.05 123.127 221.15 123.296 221.364 123.24C224.886 123.217 228.397 123.262 231.92 123.206C237.158 123.206 242.386 123.217 247.624 123.206L247.703 123.172C247.938 123.228 248.174 123.206 248.42 123.206C257.911 123.206 267.401 123.217 276.902 123.206C279.886 123.217 282.881 123.206 285.876 123.206C290.812 123.206 295.759 123.251 300.694 123.228C300.841 123.195 300.886 123.094 300.829 122.914ZM242.487 116.217C242.711 115.589 243.317 115.163 243.956 115.017C245.19 114.725 246.57 115.825 246.469 117.115C246.48 118.382 245.145 119.414 243.923 119.123C243.429 118.954 242.958 118.696 242.655 118.259C242.262 117.664 242.173 116.868 242.487 116.217ZM275.96 115.724C276.476 115.152 277.295 114.826 278.058 115.028C278.63 115.197 279.191 115.567 279.438 116.128C279.931 117.092 279.55 118.394 278.585 118.898C277.732 119.37 276.656 119.145 276.005 118.461C275.343 117.709 275.298 116.475 275.96 115.724Z" fill="url(#paint1_radial_142_20)" stroke="#FCD109" stroke-width="0.0280253"/>
<path d="M278.819 127.844C278.976 127.878 278.002 126.908 278.192 126.863C278.372 126.885 279.052 126.357 279.875 126.788C280.697 127.219 280.494 128.227 280.4 128.601C280.289 129.047 280.006 129.331 279.781 129.555C279.658 129.656 279.381 129.813 279.213 129.802C279.314 129.252 278.989 129.162 278.966 128.601L278.819 127.844Z" fill="url(#paint2_linear_142_20)" stroke="#FCD109" stroke-width="0.0280253"/>
<path d="M242.96 128.452C242.937 129.013 242.612 129.103 242.713 129.652C242.545 129.664 242.268 129.507 242.145 129.406C241.92 129.181 241.637 128.897 241.526 128.452C241.433 128.078 241.229 127.07 242.051 126.639C242.874 126.207 243.554 126.736 243.734 126.713C243.924 126.758 242.95 127.728 243.107 127.695L242.96 128.452Z" fill="url(#paint3_linear_142_20)" stroke="#FCD109" stroke-width="0.0280253"/>
<path d="M277.351 135.03C277.519 134.884 277.632 134.884 277.856 134.884C276.51 137.8 274.939 140.717 272.578 142.987C272.326 143.213 272.059 143.422 271.78 143.613C271.509 143.811 271.244 143.996 270.981 144.186C270.723 144.365 270.466 144.545 270.217 144.733C269.577 145.08 269.016 145.563 268.31 145.776C267.02 146.393 265.629 146.808 264.227 147.1C263.677 147.189 263.116 147.324 262.555 147.335C261.86 147.537 261.119 147.391 260.413 147.436C260.02 147.503 259.672 147.279 259.291 147.324C258.96 147.277 258.63 147.221 258.302 147.156C257.969 147.088 257.638 147.009 257.31 146.92C252.168 145.316 247.12 141.39 245.649 136.08C245.583 135.722 245.549 135.359 245.549 134.996C245.706 135.31 245.869 135.622 246.037 135.931C248.129 140.492 252.28 144.082 257.183 145.164C257.581 145.346 258.012 145.282 258.394 145.439C258.741 145.439 259.078 145.428 259.414 145.54C260.57 145.563 261.725 145.551 262.881 145.551C263.037 145.563 263.183 145.484 263.341 145.451C265.266 145.385 267.153 144.86 268.91 144.064C269.261 143.904 269.607 143.734 269.948 143.555C270.246 143.398 270.536 143.228 270.819 143.046C271.097 142.867 271.367 142.676 271.629 142.474C273.705 140.829 275.5 138.698 276.719 136.247C276.951 135.806 277.163 135.397 277.351 135.03Z" fill="#BDA727" stroke="#BDA727" stroke-width="0.0280253"/>
<path d="M275.522 145.002C278.854 143.05 282.713 142.108 286.549 141.928C287.794 141.816 289.051 141.85 290.285 142.007C291.092 142.197 291.922 142.422 292.562 142.971C292.237 142.994 291.922 142.848 291.597 142.803C290.677 142.624 289.724 142.691 288.793 142.668C286.089 142.668 283.363 142.882 280.75 143.622C279.381 144.037 278.013 144.519 276.768 145.237C274.614 146.426 272.673 147.997 271.103 149.881C268.298 153.101 266.649 157.184 265.853 161.346C265.471 163.578 265.034 165.799 264.686 168.042C264.125 168.099 263.553 168.065 262.992 168.065C260.524 168.054 258.057 168.042 255.589 168.02C255.061 168.042 254.545 167.919 254.018 167.953C249.531 167.975 245.044 167.942 240.557 167.942L240.647 167.908C243.978 167.56 247.321 167.167 250.653 166.842C254.882 166.82 259.1 166.831 263.329 166.842C263.463 166.82 263.699 166.887 263.721 166.696C264.069 164.879 264.406 163.062 264.753 161.244C265.236 158.721 265.999 156.23 267.176 153.931C269.027 150.229 271.955 147.088 275.522 145.002Z" fill="#0D69B3" stroke="#0D69B3" stroke-width="0.0280253"/>
<path d="M280.75 143.622C283.364 142.882 286.09 142.668 288.793 142.668C289.724 142.691 290.678 142.624 291.597 142.803C291.923 142.848 292.237 142.994 292.562 142.971C293.089 143.398 293.403 144.026 293.639 144.654C294.155 146.146 294.447 147.694 294.693 149.253C294.705 149.881 294.817 150.588 294.48 151.16C294.166 151.721 293.538 151.99 292.944 152.159C290.779 152.719 288.513 152.192 286.348 152.719C284.564 153.101 282.904 154.088 281.771 155.513C280.436 157.173 279.729 159.236 279.337 161.301C279.034 163.141 278.652 164.98 278.349 166.831C278.215 167.246 278.136 167.695 278.058 168.132C280.178 168.166 282.298 168.132 284.418 168.155C285.226 168.132 286.033 168.177 286.841 168.121C287.29 169.153 287.189 170.32 287.043 171.408C286.864 172.631 286.572 173.842 286.022 174.964C285.562 175.917 284.8 176.792 283.756 177.129C283.218 177.342 282.635 177.297 282.062 177.297C280.178 177.297 278.293 177.319 276.409 177.297C276.106 178.677 275.904 180.09 275.635 181.493C275.141 184.218 274.659 186.955 274.165 189.693C274.154 189.782 274.143 189.973 274.143 190.074V190.085C269.241 190.085 264.35 190.097 259.448 190.085C259.459 190.041 259.47 189.962 259.481 189.917C259.493 189.861 259.504 189.737 259.515 189.67C259.527 189.76 259.538 189.928 259.549 190.007C259.852 190.041 260.402 190.197 260.48 189.76C261.243 185.632 261.95 181.481 262.735 177.353C262.432 177.286 262.118 177.286 261.804 177.342C261.759 177.499 261.714 177.656 261.658 177.813L261.725 177.308C258.674 177.297 255.612 177.308 252.561 177.297C251.82 177.275 251.058 177.297 250.317 177.207C249.05 177.151 247.771 177.196 246.503 177.072C244.933 177.072 243.373 176.927 241.803 176.927C240.569 176.803 239.324 176.848 238.079 176.792C237.271 176.691 236.441 176.736 235.622 176.702C234.287 176.556 232.93 176.658 231.595 176.512C230.182 176.523 228.768 176.399 227.355 176.366C227.366 176.355 227.377 176.31 227.377 176.299C227.849 176.31 228.308 176.276 228.78 176.265C229.823 176.13 230.877 176.22 231.921 176.074C233.009 176.074 234.086 175.928 235.174 175.928C236.138 175.794 237.114 175.872 238.079 175.738C239.212 175.738 240.322 175.592 241.455 175.581C242.387 175.457 243.329 175.525 244.26 175.401C245.348 175.412 246.425 175.244 247.513 175.255C248.579 175.132 249.667 175.165 250.732 175.053C250.631 174.638 250.553 174.223 250.463 173.808C250.385 173.55 250.071 173.606 249.869 173.572C247.434 173.224 245.011 172.877 242.588 172.54C242.746 172.417 242.959 172.473 243.138 172.451C245.023 172.305 246.896 172.136 248.781 172.002C249.207 171.979 249.622 171.901 250.048 171.89C249.857 171.306 249.745 170.667 249.487 170.129C245.46 169.512 241.433 168.962 237.417 168.3C238.46 168.132 239.515 168.053 240.558 167.941C245.045 167.941 249.532 167.975 254.019 167.952C254.546 167.919 255.062 168.042 255.59 168.02C258.058 168.042 260.525 168.054 262.993 168.065C263.554 168.065 264.126 168.098 264.687 168.042C265.035 165.799 265.472 163.577 265.854 161.345C266.65 157.183 268.299 153.1 271.104 149.881C272.674 147.996 274.615 146.426 276.768 145.237C278.013 144.519 279.381 144.037 280.75 143.622Z" fill="#107BD4" stroke="#107BD4" stroke-width="0.0280253"/>
<path d="M278.349 166.831C280.481 166.842 282.624 166.82 284.766 166.842C285.618 166.842 286.493 167.314 286.841 168.121C286.034 168.177 285.226 168.133 284.418 168.155C282.298 168.133 280.178 168.166 278.058 168.133C278.136 167.695 278.215 167.246 278.349 166.831ZM261.804 177.342C262.118 177.286 262.432 177.286 262.735 177.353C261.949 181.481 261.243 185.632 260.48 189.76C260.401 190.197 259.852 190.041 259.549 190.007C259.537 189.928 259.526 189.76 259.515 189.67C260.222 185.722 260.906 181.762 261.658 177.813C261.714 177.656 261.759 177.499 261.804 177.342Z" fill="#0D69B3" stroke="#0D69B3" stroke-width="0.0280253"/>
<path d="M279.33 128.158C279.241 127.99 279.23 127.788 279.23 127.597L279.14 127.608C279.005 127.115 278.59 126.644 278.052 126.621C277.648 126.587 277.143 126.599 276.908 126.98C276.459 127.586 276.672 128.36 276.65 129.044C276.65 129.089 276.661 129.168 276.661 129.212C276.661 129.672 276.605 130.121 276.526 130.57C276.459 130.704 276.425 130.85 276.425 131.007C276.235 132.062 275.853 133.105 275.337 134.058C275.236 134.193 275.158 134.339 275.124 134.496C274.788 135.079 274.384 135.618 273.969 136.156C273.901 136.212 273.845 136.279 273.789 136.347C273.497 136.706 273.184 137.009 272.858 137.323C272.78 137.368 272.724 137.424 272.656 137.469C272.275 137.839 271.849 138.186 271.389 138.467C271.332 138.501 271.276 138.545 271.209 138.59C268.337 140.486 264.849 141.271 261.45 141.305C258.567 141.395 255.661 140.778 253.059 139.533C253.014 139.51 252.902 139.465 252.857 139.443C252.42 139.207 251.971 139.005 251.567 138.714C251.477 138.669 251.387 138.613 251.286 138.568C250.871 138.321 250.479 138.052 250.109 137.738C249.985 137.626 249.851 137.536 249.716 137.435C249.312 137.11 248.897 136.762 248.55 136.369C248.46 136.268 248.37 136.179 248.28 136.089C247.058 134.821 246.104 133.273 245.6 131.591C245.117 130.256 245.185 128.797 245.128 127.395C244.724 126.778 243.872 126.43 243.199 126.812C242.919 127.014 242.885 127.384 242.672 127.642C242.324 131.344 243.906 135.034 246.43 137.704C246.43 137.794 246.475 137.85 246.553 137.884C247.002 138.299 247.439 138.725 247.888 139.129C247.966 139.207 248.056 139.286 248.157 139.353C248.606 139.723 249.088 140.06 249.559 140.408C249.649 140.475 249.739 140.531 249.84 140.587C250.457 140.946 251.04 141.372 251.702 141.619C251.747 141.653 251.825 141.709 251.87 141.731C254.002 142.752 256.301 143.448 258.657 143.672C258.915 143.672 259.173 143.694 259.431 143.75C260.553 143.818 261.674 143.784 262.796 143.762C266.262 143.459 269.841 142.617 272.735 140.576L272.769 140.621C272.858 140.542 272.937 140.475 273.027 140.408C273.487 140.071 273.935 139.712 274.384 139.342C274.485 139.263 274.597 139.174 274.698 139.073C275.192 138.534 275.764 138.041 276.179 137.424L276.246 137.457C276.28 137.401 276.336 137.289 276.37 137.233C276.751 136.717 277.099 136.179 277.436 135.64C277.458 135.606 277.514 135.55 277.536 135.517L277.492 135.472C277.525 135.427 277.604 135.337 277.637 135.292C278.254 134.036 278.804 132.724 278.995 131.333C279.073 131.299 279.118 131.232 279.118 131.153C279.13 130.704 279.287 130.278 279.242 129.829C279.342 129.28 279.353 128.719 279.33 128.158Z" fill="white" stroke="white" stroke-width="0.0280253"/>
<mask id="mask0_142_20" style="mask-type:luminance" maskUnits="userSpaceOnUse" x="242" y="126" width="38" height="18">
<path d="M279.33 128.158C279.241 127.99 279.23 127.788 279.23 127.597L279.14 127.608C279.005 127.115 278.59 126.644 278.052 126.621C277.648 126.587 277.143 126.599 276.908 126.98C276.459 127.586 276.672 128.36 276.65 129.044C276.65 129.089 276.661 129.168 276.661 129.212C276.661 129.672 276.605 130.121 276.526 130.57C276.459 130.704 276.425 130.85 276.425 131.007C276.235 132.062 275.853 133.105 275.337 134.058C275.236 134.193 275.158 134.339 275.124 134.496C274.788 135.079 274.384 135.618 273.969 136.156C273.901 136.212 273.845 136.279 273.789 136.347C273.497 136.706 273.184 137.009 272.858 137.323C272.78 137.368 272.724 137.424 272.656 137.469C272.275 137.839 271.849 138.186 271.389 138.467C271.332 138.501 271.276 138.545 271.209 138.59C268.337 140.486 264.849 141.271 261.45 141.305C258.567 141.395 255.661 140.778 253.059 139.533C253.014 139.51 252.902 139.465 252.857 139.443C252.42 139.207 251.971 139.005 251.567 138.714C251.477 138.669 251.387 138.613 251.286 138.568C250.871 138.321 250.479 138.052 250.109 137.738C249.985 137.626 249.851 137.536 249.716 137.435C249.312 137.11 248.897 136.762 248.55 136.369C248.46 136.268 248.37 136.179 248.28 136.089C247.058 134.821 246.104 133.273 245.6 131.591C245.117 130.256 245.185 128.797 245.128 127.395C244.724 126.778 243.872 126.43 243.199 126.812C242.919 127.014 242.885 127.384 242.672 127.642C242.324 131.344 243.906 135.034 246.43 137.704C246.43 137.794 246.475 137.85 246.553 137.884C247.002 138.299 247.439 138.725 247.888 139.129C247.966 139.207 248.056 139.286 248.157 139.353C248.606 139.723 249.088 140.06 249.559 140.408C249.649 140.475 249.739 140.531 249.84 140.587C250.457 140.946 251.04 141.372 251.702 141.619C251.747 141.653 251.825 141.709 251.87 141.731C254.002 142.752 256.301 143.448 258.657 143.672C258.915 143.672 259.173 143.694 259.431 143.75C260.553 143.818 261.674 143.784 262.796 143.762C266.262 143.459 269.841 142.617 272.735 140.576L272.769 140.621C272.858 140.542 272.937 140.475 273.027 140.408C273.487 140.071 273.935 139.712 274.384 139.342C274.485 139.263 274.597 139.174 274.698 139.073C275.192 138.534 275.764 138.041 276.179 137.424L276.246 137.457C276.28 137.401 276.336 137.289 276.37 137.233C276.751 136.717 277.099 136.179 277.436 135.64C277.458 135.606 277.514 135.55 277.536 135.517L277.492 135.472C277.525 135.427 277.604 135.337 277.637 135.292C278.254 134.036 278.804 132.724 278.995 131.333C279.073 131.299 279.118 131.232 279.118 131.153C279.13 130.704 279.287 130.278 279.242 129.829C279.342 129.28 279.353 128.719 279.33 128.158Z" fill="white"/>
</mask>
<g mask="url(#mask0_142_20)">
<path d="M241.81 127.779C242.719 128.064 244.808 127.347 245.4 128.003M242.334 130.546C243.205 130.243 245.073 129.525 245.848 129.948M243.231 133.313C243.652 133.449 244.483 132.709 244.895 132.493C245.509 132.17 246.138 131.923 246.821 131.817M244.577 136.23C245.012 135.612 245.532 135.099 246.159 134.661C246.781 134.226 248.483 133.065 249.214 133.463M245.848 138.324C246.342 137.932 246.542 137.238 247.06 136.826C247.687 136.328 248.646 136.239 249.288 135.93M247.961 139.875C248.109 138.791 249.21 137.482 250.261 137.576M249.588 141.39C250.143 141.334 250.613 140.091 250.988 139.67C251.551 139.039 252.134 138.845 252.878 138.623M252.803 142.736C252.767 141.951 253.578 139.701 254.523 139.819M255.196 143.484C255.157 142.556 255.637 139.767 256.767 139.67M257.664 144.979C257.45 143.682 257.464 141.806 258.487 140.866M260.73 145.279C260.616 144.197 259.542 142.012 260.73 141.165M264.021 144.531C263.508 143.936 263.21 141.59 263.422 140.941M267.162 144.007C266.766 143.289 266.276 142.614 266.126 141.781C266.037 141.282 266.194 140.572 266.115 140.193M269.779 142.885C268.921 142.324 268.683 140.261 268.957 139.371M272.322 141.764C271.712 140.454 271.061 139.439 271.05 137.95M274.79 139.371C273.841 138.733 272.631 137.573 272.77 136.304M277.407 137.351C275.966 137.032 274.237 135.743 273.369 134.584M278.604 134.884C277.564 134.661 274.13 133.321 274.341 131.967M279.725 132.266C278.277 131.735 276.17 131.258 275.014 130.247M280.473 129.873C279.561 129.951 278.254 129.509 277.327 129.349C276.297 129.172 275.343 128.825 274.341 128.602M279.576 127.555C277.816 127.66 276.165 127.058 274.565 126.508" stroke="#D1D1D1" stroke-width="0.596284"/>
</g>
<path d="M54.4434 132.948C56.0691 132.703 57.9399 132.55 59.32 133.562C60.1787 134.206 60.4854 135.371 60.424 136.414C60.4854 138.131 59.688 139.972 58.1548 140.861C56.8051 141.597 55.1798 141.658 53.6768 141.505C52.6647 141.383 51.6526 140.831 51.1313 139.911C49.9655 137.242 51.4071 133.47 54.4434 132.948ZM5.80064 134.881C5.89251 133.96 6.72071 133.132 7.6714 133.163C14.7564 133.163 21.8105 133.194 28.8647 133.163C29.6314 133.102 30.4596 133.439 30.8274 134.114C31.3487 135.034 30.8888 136.046 30.8274 136.997C30.6129 138.285 30.6741 140.003 29.1715 140.493C24.0188 140.646 18.8661 140.493 13.7134 140.554C13.2228 143.805 12.7627 147.026 12.2719 150.246C12.2719 150.369 12.3027 150.645 12.3027 150.767C16.0751 150.737 19.8474 150.767 23.6198 150.737C24.6627 150.675 25.7666 151.565 25.6746 152.669C25.5828 153.804 25.3373 154.908 25.1841 156.043C25.0611 156.809 24.4479 157.515 23.6504 157.668C19.4485 157.76 15.1853 157.576 10.9838 157.76C10.3089 162.391 9.51142 167.022 8.80595 171.654C8.71419 172.574 7.97787 173.371 7.0578 173.402C5.30979 173.433 3.56137 173.433 1.81336 173.402C0.678587 173.433 -0.241598 172.175 0.0649782 171.101C1.93641 159.018 3.86852 146.965 5.80064 134.881ZM36.9613 133.224C38.5563 133.102 40.1817 133.194 41.7767 133.163C42.7582 133.102 43.7397 133.868 43.8314 134.881C43.8314 135.678 43.6167 136.475 43.5248 137.273C42.2366 145.492 40.9179 153.712 39.6295 161.932C39.4456 163.25 39.1082 164.661 39.507 166.011C39.9671 167.36 42.0217 166.777 42.5126 168.188C42.8192 169.323 42.4817 170.519 42.3897 171.685C42.2979 173.218 40.5496 173.555 39.3537 173.893C36.7468 174.384 33.5875 174.016 31.7166 171.868C30.3672 170.305 30.2751 168.096 30.5514 166.133C32.1768 155.706 33.8022 145.278 35.4586 134.819C35.5507 134.052 36.164 133.347 36.9613 133.224ZM97.8415 134.881C97.9333 133.96 98.7616 133.163 99.6817 133.163H104.344C105.509 133.132 106.46 134.39 106.184 135.494C105.11 142.303 104.006 149.112 102.933 155.92C104.558 155.675 106.399 155.368 107.534 154.049C109.435 151.902 110.999 149.418 112.165 146.811C112.563 145.799 112.778 144.327 114.097 144.143C115.845 144.082 117.624 144.112 119.372 144.143C120.568 144.112 121.458 145.462 121.059 146.566C120.599 148.192 119.832 149.694 119.035 151.136C117.256 154.019 115.293 156.871 112.717 159.141C113.851 162.545 115.293 165.857 116.55 169.2C116.918 170.305 117.808 171.593 116.98 172.666C116.029 173.954 114.25 173.31 112.931 173.463C111.551 173.31 109.558 174.015 108.791 172.451C107.349 169.108 106.153 165.673 104.681 162.33C103.822 162.361 102.933 162.392 102.074 162.3C102.013 162.422 101.89 162.667 101.829 162.79C101.368 165.857 100.878 168.924 100.387 171.991C100.203 172.727 99.6202 173.372 98.8229 173.433C97.1975 173.494 95.5412 173.463 93.8851 173.463C93.1795 173.463 92.5356 173.003 92.2288 172.39C91.9221 171.776 92.106 171.071 92.1984 170.397C94.0997 158.558 95.9705 146.719 97.8415 134.881ZM183.074 138.224C183.288 137.365 184.116 136.782 184.975 136.813C186.202 136.843 187.46 136.782 188.717 136.843C189.729 136.874 190.527 137.886 190.404 138.868C190.22 140.616 189.79 142.364 189.668 144.112C190.864 144.112 192.09 144.082 193.287 144.112C194.36 144.112 195.25 145.216 195.066 146.259C194.912 147.21 194.697 148.13 194.544 149.081C194.391 149.878 193.716 150.522 192.95 150.645C191.477 150.737 190.036 150.583 188.594 150.737C187.981 154.846 187.306 158.956 186.662 163.066C186.57 164.017 186.509 165.09 187.061 165.918C187.889 166.931 189.33 166.562 190.496 166.685C191.416 166.961 191.999 167.974 191.845 168.894C191.692 169.936 191.661 170.979 191.416 171.991C191.048 173.126 189.729 173.341 188.717 173.617C185.926 174.353 182.705 174.353 180.221 172.727C177.921 171.163 177.553 168.127 177.798 165.55C178.442 160.582 179.455 155.644 180.007 150.645C179.148 150.675 178.105 150.798 177.461 150.031C176.725 149.265 177.093 148.13 177.216 147.179C177.4 146.167 177.369 144.848 178.473 144.296C179.363 143.958 180.375 144.204 181.326 144.081C181.908 142.119 182.46 140.156 183.074 138.224ZM165.745 148.161C167.677 146.228 170.008 144.634 172.676 143.836C173.842 143.315 175.345 144.296 175.314 145.584C175.1 147.271 174.701 148.927 174.425 150.583C174.302 151.412 173.596 152.117 172.768 152.209C169.763 152.73 167.156 154.54 165.07 156.687C164.549 157.331 163.782 157.944 163.69 158.834C163.046 163.127 162.371 167.421 161.697 171.715C161.605 172.635 160.807 173.525 159.856 173.463H155.194C154.121 173.525 153.17 172.451 153.293 171.378C154.642 162.882 155.992 154.417 157.311 145.922C157.372 145.063 157.986 144.235 158.875 144.143C160.01 144.081 161.144 144.112 162.31 144.112C163.23 144.112 164.089 144.94 164.089 145.891C164.089 147.21 163.966 148.559 163.935 149.909C164.672 149.449 165.132 148.713 165.745 148.161ZM51.1003 144.265C52.7565 143.928 54.474 144.204 56.1301 144.112C57.0811 143.99 58.0931 144.603 58.2463 145.554C58.3693 146.412 58.1235 147.241 58.0315 148.069C56.7743 155.951 55.5165 163.833 54.2898 171.715C54.1978 172.605 53.4621 173.494 52.511 173.464C50.855 173.464 49.1987 173.494 47.512 173.433C46.4691 173.31 45.7023 172.114 45.9785 171.102C47.2973 162.913 48.5549 154.755 49.8737 146.566C49.935 145.676 50.1803 144.634 51.1003 144.265ZM150.349 144.664C145.779 143.805 141.117 143.192 136.486 143.652C132.345 144.174 128.174 146.045 125.629 149.449C122.102 153.927 120.905 159.938 121.703 165.52C122.132 168.188 123.297 170.887 125.475 172.543C127.499 174.108 130.229 174.322 132.683 173.924C136.117 173.249 139.031 171.041 141.424 168.587C141.546 169.63 141.301 170.673 141.362 171.685C141.424 172.635 142.282 173.525 143.233 173.463H146.362C147.282 173.463 148.049 172.605 148.11 171.715C149.429 163.404 150.747 155.123 152.036 146.842C152.219 145.799 151.392 144.787 150.349 144.664ZM141.731 159.11C140.504 161.41 138.786 163.496 136.854 165.274C135.75 166.195 134.339 167.145 132.836 166.839C131.364 166.532 130.658 164.999 130.321 163.68C129.555 160.245 130.26 156.503 132.192 153.528C133.051 152.148 134.431 151.105 136.026 150.676C138.265 150.123 140.626 150.399 142.804 151.013L142.927 151.136C142.651 153.804 142.129 156.442 141.731 159.11ZM90.1434 154.509C90.1126 151.442 89.2846 148.222 87.1378 145.922C85.6657 144.296 83.4573 143.468 81.3105 143.499C77.7526 143.376 74.4097 145.125 71.8028 147.455C71.2198 147.915 70.8213 148.59 70.1774 148.958C70.1774 147.946 70.2692 146.934 70.2384 145.891C70.2692 144.94 69.3797 144.112 68.4596 144.112H65.3312C64.35 144.112 63.5524 144.971 63.491 145.922C61.5588 158.19 59.5962 170.458 57.6638 182.726C57.388 183.861 58.3695 185.026 59.5349 184.995C61.2523 184.965 63.0006 185.118 64.6874 184.872C66.037 184.504 66.0061 182.94 66.2209 181.806C66.7115 179.107 67.0491 176.408 67.3557 173.678C73.3977 174.843 80.4212 174.046 84.9296 169.476C88.6099 165.459 90.3273 159.907 90.1434 154.509ZM81.5558 157.607C81.372 160.429 80.3597 163.281 78.3969 165.336C75.8515 167.759 71.9867 167.421 68.8584 166.594C68.7974 166.501 68.7051 166.317 68.6744 166.225C69.1651 163.557 69.4105 160.858 70.024 158.22C71.7416 155.399 73.8269 152.546 76.8019 150.982C77.9061 150.461 79.4089 150.584 80.2063 151.596C81.5558 153.283 81.6786 155.552 81.5558 157.607Z" fill="#107BD4" stroke="#107BD4" stroke-width="0.0301123"/>
</g>
<defs>
<linearGradient id="paint0_linear_142_20" x1="260.979" y1="124.238" x2="260.979" y2="190.171" gradientUnits="userSpaceOnUse">
<stop stop-color="#F7E830"/>
<stop offset="1" stop-color="#FDCB06"/>
</linearGradient>
<radialGradient id="paint1_radial_142_20" cx="0" cy="0" r="1" gradientUnits="userSpaceOnUse" gradientTransform="translate(260.635 154.31) scale(53.629 53.629)">
<stop offset="0.596" stop-color="#F29405"/>
<stop offset="0.736" stop-color="#F7D01E"/>
<stop offset="1" stop-color="#FDCB06"/>
</radialGradient>
<linearGradient id="paint2_linear_142_20" x1="279.325" y1="126.617" x2="279.344" y2="129.74" gradientUnits="userSpaceOnUse">
<stop stop-color="#FADA1C"/>
<stop offset="1" stop-color="#FDCB06"/>
</linearGradient>
<linearGradient id="paint3_linear_142_20" x1="242.601" y1="126.468" x2="242.582" y2="129.59" gradientUnits="userSpaceOnUse">
<stop stop-color="#FADA1C"/>
<stop offset="1" stop-color="#FDCB06"/>
</linearGradient>
<clipPath id="clip0_142_20">
<rect width="301" height="301" fill="white"/>
</clipPath>
</defs>
</svg>
