<svg width="75" height="75" viewBox="0 0 75 75" fill="none" xmlns="http://www.w3.org/2000/svg">
<path d="M44.8205 43.7716L48.1462 44.1207V71.1914L38.9599 61.3821V45.7762L41.628 47.0792L44.8205 43.7716ZM30.1793 43.7716L26.8518 44.1207V71.1914L36.038 61.3821V45.7762L33.3701 47.0792L30.1793 43.7716ZM55.3717 26.8116L56.4479 30.5578L53.2172 32.736L52.9467 36.6283L49.1659 37.5694L47.5834 41.1311L43.7075 40.7216L41.0012 43.5176L37.4999 41.8071L33.9986 43.5176L31.2923 40.7124L27.4164 41.1218L25.8339 37.5603L22.0531 36.6283L21.7826 32.7415L18.5426 30.5559L19.619 26.8099L17.3347 23.654L19.6263 20.5017L18.5426 16.7629L21.7752 14.5847L22.0458 10.6978L25.8339 9.76582L27.4164 6.20435L31.2923 6.61362L33.9986 3.80859L37.4999 5.51909L41.0012 3.80859L43.7075 6.61362L47.5834 6.20435L49.1659 9.76582L52.9467 10.707L53.2172 14.5938L56.4479 16.772L55.3717 20.5182L57.6651 23.654L55.3717 26.8116ZM48.1626 23.654C48.1626 21.561 47.542 19.515 46.3792 17.7748C45.2164 16.0345 43.5637 14.6782 41.63 13.8772C39.6963 13.0763 37.5686 12.8667 35.5158 13.275C33.463 13.6833 31.5775 14.6912 30.0975 16.1712C28.6175 17.6511 27.6097 19.5367 27.2013 21.5895C26.793 23.6423 27.0026 25.77 27.8035 27.7037C28.6045 29.6374 29.9608 31.2901 31.7011 32.4529C33.4414 33.6157 35.4873 34.2363 37.5803 34.2363C40.3856 34.232 43.0747 33.1156 45.0583 31.132C47.0419 29.1484 48.1583 26.4593 48.1626 23.654ZM37.5803 15.9954C36.0656 15.9954 34.5849 16.4445 33.3255 17.286C32.0661 18.1276 31.0845 19.3236 30.5048 20.723C29.9252 22.1224 29.7735 23.6623 30.069 25.1479C30.3645 26.6335 31.0939 27.9981 32.1649 29.0692C33.2359 30.1402 34.6005 30.8697 36.0861 31.1652C37.5717 31.4607 39.1116 31.3091 40.511 30.7294C41.9104 30.1498 43.1065 29.1682 43.9481 27.9088C44.7896 26.6494 45.2388 25.1687 45.2388 23.654C45.233 21.6251 44.4241 19.6811 42.989 18.247C41.5538 16.8128 39.6092 16.0053 37.5803 16.0009V15.9954Z" fill="#121212"/>
</svg>
