<svg width="25" height="27" viewBox="0 0 25 27" fill="none" xmlns="http://www.w3.org/2000/svg">
<path d="M0.324707 25.035V10.1501C0.324707 9.71171 0.422889 9.29672 0.619254 8.90513C0.815619 8.51354 1.08619 8.19102 1.43097 7.93757L10.6527 0.954072C11.1356 0.585318 11.687 0.40094 12.3069 0.40094C12.9269 0.40094 13.4817 0.585318 13.9715 0.954072L23.1932 7.93586C23.5391 8.18931 23.8097 8.5124 24.0049 8.90513C24.2013 9.29672 24.2995 9.71171 24.2995 10.1501V25.035C24.2995 25.4939 24.1288 25.8941 23.7874 26.2354C23.4461 26.5768 23.0459 26.7475 22.587 26.7475H16.7919C16.3992 26.7475 16.0704 26.615 15.8055 26.3502C15.5407 26.0842 15.4083 25.7554 15.4083 25.3638V17.197C15.4083 16.8054 15.2758 16.4772 15.011 16.2123C14.745 15.9463 14.4162 15.8133 14.0246 15.8133H10.5996C10.208 15.8133 9.87979 15.9463 9.61492 16.2123C9.34892 16.4772 9.21592 16.8054 9.21592 17.197V25.3655C9.21592 25.7571 9.08348 26.0853 8.81862 26.3502C8.55376 26.615 8.22553 26.7475 7.83394 26.7475H2.03719C1.57824 26.7475 1.17809 26.5768 0.836739 26.2354C0.495384 25.8941 0.324707 25.4939 0.324707 25.035Z" fill="#0E0E23"/>
</svg>
