<svg width="44" height="44" viewBox="0 0 44 44" fill="none" xmlns="http://www.w3.org/2000/svg">
<path d="M22.0006 0C14.8062 0 8.91016 5.8784 8.91016 13.053C8.91016 15.833 9.79808 18.4166 11.3007 20.5401L20.403 36.2758C21.6776 37.9412 22.5251 37.6248 23.585 36.1878L33.625 19.1026C33.8274 18.7356 33.9866 18.3449 34.1252 17.9458C34.7621 16.3932 35.0897 14.7312 35.0897 13.053C35.0902 5.8784 29.1959 0 22.0006 0ZM22.0006 6.116C25.8752 6.116 28.9561 9.18984 28.9561 13.053C28.9561 16.9162 25.8752 19.9892 22.0006 19.9892C18.1264 19.9892 15.0442 16.9171 15.0442 13.0535C15.0442 9.18984 18.1264 6.11644 22.0002 6.11644" fill="#0E0E23"/>
<path d="M30.3216 21.5195L30.3005 21.575L30.319 21.5244L30.3216 21.5195ZM14.9625 30.3851C8.7471 31.2633 4.3999 33.3643 4.3999 36.4571C4.3999 40.623 11.6634 44 21.9999 44C32.3364 44 39.5999 40.623 39.5999 36.4571C39.5999 33.3643 35.2531 31.2633 29.0381 30.3851L28.1771 31.8512C32.8613 32.5011 36.0799 33.8668 36.0799 35.4517C36.0799 37.6737 29.776 39.4746 21.9999 39.4746C14.2238 39.4746 7.9199 37.6737 7.9199 35.4517C7.91946 33.8721 11.1169 32.5077 15.8157 31.8551L14.9625 30.3851Z" fill="#0E0E23"/>
</svg>
