<svg width="25" height="25" viewBox="0 0 25 25" fill="none" xmlns="http://www.w3.org/2000/svg">
<path d="M12.5002 0C8.4125 0 5.0625 3.34 5.0625 7.4165C5.0625 8.996 5.567 10.464 6.42075 11.6705L11.5925 20.6112C12.3167 21.5575 12.7983 21.3778 13.4005 20.5613L19.105 10.8538C19.22 10.6453 19.3105 10.4232 19.3892 10.1965C19.7511 9.31433 19.9373 8.37 19.9373 7.4165C19.9375 3.34 16.5885 0 12.5002 0ZM12.5002 3.475C14.7017 3.475 16.4522 5.2215 16.4522 7.4165C16.4522 9.6115 14.7017 11.3575 12.5002 11.3575C10.299 11.3575 8.54775 9.612 8.54775 7.41675C8.54775 5.2215 10.299 3.47525 12.5 3.47525" fill="#1C1D75"/>
<path d="M17.2283 12.227L17.2162 12.2585L17.2267 12.2297L17.2283 12.227ZM8.5015 17.2642C4.97 17.7632 2.5 18.957 2.5 20.7142C2.5 23.0812 6.627 25 12.5 25C18.373 25 22.5 23.0812 22.5 20.7142C22.5 18.957 20.0303 17.7632 16.499 17.2642L16.0098 18.0972C18.6713 18.4665 20.5 19.2425 20.5 20.143C20.5 21.4055 16.9183 22.4287 12.5 22.4287C8.08175 22.4287 4.5 21.4055 4.5 20.143C4.49975 19.2455 6.3165 18.4702 8.98625 18.0995L8.5015 17.2642Z" fill="#1C1D75"/>
</svg>
