<svg width="43" height="54" viewBox="0 0 43 54" fill="none" xmlns="http://www.w3.org/2000/svg">
<path d="M21.5007 0.249985C12.712 0.249985 5.50952 7.43099 5.50952 16.1955C5.50952 19.5914 6.5942 22.7476 8.42976 25.3416L19.549 44.5642C21.1062 46.5986 22.1414 46.2122 23.4362 44.4567L35.7009 23.5855C35.9482 23.1373 36.1427 22.66 36.312 22.1725C37.09 20.2758 37.4903 18.2455 37.4902 16.1955C37.4908 7.43099 30.2904 0.249985 21.5007 0.249985ZM21.5007 7.72123C26.2339 7.72123 29.9975 11.4762 29.9975 16.1955C29.9975 20.9147 26.2339 24.6686 21.5007 24.6686C16.768 24.6686 13.0028 20.9158 13.0028 16.196C13.0028 11.4762 16.768 7.72177 21.5001 7.72177" fill="#E3E3E3"/>
<path d="M31.6657 26.538L31.6399 26.6058L31.6625 26.544L31.6657 26.538ZM12.9032 37.3681C5.3105 38.441 0 41.0075 0 44.7856C0 49.8747 8.87305 54 21.5 54C34.127 54 43 49.8747 43 44.7856C43 41.0075 37.69 38.441 30.0979 37.3681L29.046 39.1591C34.7682 39.953 38.7 41.6214 38.7 43.5574C38.7 46.2718 30.9992 48.4718 21.5 48.4718C12.0008 48.4718 4.3 46.2718 4.3 43.5574C4.29946 41.6278 8.20547 39.961 13.9454 39.1639L12.9032 37.3681Z" fill="#E3E3E3"/>
</svg>
