<svg width="53" height="53" viewBox="0 0 53 53" fill="none" xmlns="http://www.w3.org/2000/svg">
<path d="M19.8748 4.41675C23.9746 4.41675 27.9065 6.04539 30.8055 8.94439C33.7045 11.8434 35.3332 15.7753 35.3332 19.8751C35.3332 23.3422 34.229 26.5001 32.2636 29.128L34.0303 30.9167H35.3332L48.5832 44.1668L44.1665 48.5834L30.9165 35.3334V34.0305L29.1278 32.2638C26.4628 34.2727 23.2121 35.3511 19.8748 35.3334C15.775 35.3334 11.8431 33.7048 8.94415 30.8058C6.04515 27.9068 4.4165 23.9749 4.4165 19.8751C4.4165 15.7753 6.04515 11.8434 8.94415 8.94439C11.8431 6.04539 15.775 4.41675 19.8748 4.41675ZM17.6665 11.0417V17.6667H11.0415V22.0834H17.6665V28.7084H22.0832V22.0834H28.7082V17.6667H22.0832V11.0417H17.6665Z" fill="#F5F7FA"/>
</svg>
