<svg width="352" height="352" viewBox="0 0 352 352" fill="none" xmlns="http://www.w3.org/2000/svg">
<g clip-path="url(#clip0_142_7)">
<path d="M352 172.423V166.233H344.313V156.609L344.054 156.688L336.834 158.898L336.691 158.941V166.233H325.295V162.171C325.295 160.279 325.718 158.832 326.551 157.866C327.379 156.913 328.563 156.428 330.073 156.428C331.159 156.428 332.283 156.683 333.414 157.188L333.697 157.314V150.795L333.564 150.746C332.509 150.367 331.074 150.176 329.294 150.176C327.052 150.176 325.015 150.663 323.238 151.631C321.46 152.599 320.062 153.981 319.082 155.739C318.106 157.495 317.61 159.523 317.61 161.766V166.233H312.258V172.423H317.61V198.502H325.295V172.423H336.691V188.996C336.691 195.821 339.911 199.28 346.26 199.28C347.304 199.28 348.402 199.158 349.523 198.919C350.664 198.673 351.442 198.427 351.899 198.165L352.001 198.105V191.858L351.688 192.064C351.271 192.342 350.752 192.569 350.143 192.738C349.531 192.91 349.02 192.996 348.625 192.996C347.137 192.996 346.037 192.595 345.354 191.804C344.664 191.006 344.313 189.611 344.313 187.658V172.423H352ZM295.097 192.997C292.308 192.997 290.109 192.072 288.56 190.251C287 188.42 286.21 185.809 286.21 182.493C286.21 179.071 287 176.393 288.56 174.53C290.111 172.679 292.289 171.739 295.035 171.739C297.699 171.739 299.82 172.637 301.34 174.408C302.866 176.188 303.641 178.844 303.641 182.306C303.641 185.81 302.913 188.502 301.476 190.302C300.049 192.089 297.903 192.997 295.097 192.997ZM295.439 165.455C290.118 165.455 285.891 167.014 282.878 170.09C279.866 173.165 278.34 177.421 278.34 182.74C278.34 187.793 279.83 191.857 282.77 194.818C285.71 197.779 289.711 199.28 294.661 199.28C299.819 199.28 303.961 197.699 306.973 194.581C309.985 191.467 311.511 187.251 311.511 182.056C311.511 176.924 310.079 172.83 307.254 169.889C304.427 166.947 300.452 165.455 295.439 165.455ZM265.95 165.455C262.331 165.455 259.336 166.381 257.049 168.207C254.748 170.043 253.581 172.451 253.581 175.366C253.581 176.881 253.833 178.226 254.329 179.368C254.827 180.513 255.599 181.521 256.625 182.367C257.643 183.207 259.214 184.086 261.296 184.98C263.046 185.701 264.351 186.31 265.18 186.79C265.991 187.26 266.566 187.733 266.891 188.194C267.206 188.645 267.366 189.262 267.366 190.023C267.366 192.191 265.743 193.246 262.402 193.246C261.163 193.246 259.749 192.987 258.201 192.477C256.664 191.975 255.213 191.239 253.899 190.296L253.58 190.067V197.465L253.697 197.52C254.784 198.022 256.155 198.445 257.771 198.778C259.384 199.111 260.849 199.281 262.122 199.281C266.05 199.281 269.213 198.351 271.521 196.514C273.843 194.665 275.02 192.2 275.02 189.185C275.02 187.01 274.387 185.144 273.138 183.64C271.897 182.148 269.744 180.778 266.741 179.567C264.349 178.607 262.816 177.81 262.184 177.198C261.574 176.607 261.265 175.771 261.265 174.712C261.265 173.774 261.647 173.022 262.431 172.413C263.221 171.801 264.321 171.49 265.701 171.49C266.982 171.49 268.291 171.692 269.594 172.089C270.896 172.485 272.039 173.016 272.994 173.665L273.308 173.88V166.862L273.187 166.81C272.307 166.432 271.146 166.109 269.735 165.847C268.331 165.587 267.058 165.455 265.95 165.455ZM233.548 192.997C230.76 192.997 228.56 192.072 227.011 190.251C225.451 188.42 224.663 185.81 224.663 182.493C224.663 179.071 225.452 176.393 227.013 174.53C228.562 172.679 230.739 171.739 233.487 171.739C236.15 171.739 238.271 172.637 239.791 174.408C241.318 176.188 242.093 178.844 242.093 182.306C242.093 185.81 241.364 188.502 239.927 190.302C238.5 192.089 236.355 192.997 233.548 192.997ZM233.891 165.455C228.568 165.455 224.342 167.014 221.33 170.09C218.318 173.165 216.79 177.421 216.79 182.74C216.79 187.795 218.282 191.857 221.222 194.818C224.162 197.779 228.162 199.28 233.112 199.28C238.27 199.28 242.413 197.699 245.425 194.581C248.436 191.467 249.963 187.251 249.963 182.056C249.963 176.924 248.531 172.83 245.705 169.889C242.878 166.947 238.902 165.455 233.891 165.455ZM205.126 171.821V166.233H197.535V198.502H205.126V181.995C205.126 179.188 205.762 176.882 207.018 175.14C208.258 173.419 209.91 172.547 211.927 172.547C212.611 172.547 213.379 172.66 214.21 172.883C215.032 173.105 215.628 173.345 215.98 173.599L216.299 173.83V166.177L216.176 166.125C215.469 165.824 214.469 165.673 213.204 165.673C211.296 165.673 209.589 166.286 208.127 167.492C206.844 168.553 205.916 170.007 205.207 171.821H205.126ZM183.942 165.455C180.459 165.455 177.353 166.202 174.711 167.674C172.064 169.149 170.016 171.256 168.623 173.934C167.237 176.606 166.532 179.727 166.532 183.208C166.532 186.257 167.215 189.055 168.564 191.521C169.915 193.991 171.826 195.923 174.245 197.264C176.66 198.602 179.452 199.281 182.543 199.281C186.15 199.281 189.23 198.56 191.7 197.137L191.799 197.08V190.126L191.48 190.359C190.362 191.174 189.112 191.824 187.767 192.292C186.425 192.761 185.202 192.997 184.13 192.997C181.151 192.997 178.76 192.065 177.024 190.228C175.285 188.388 174.403 185.805 174.403 182.554C174.403 179.283 175.323 176.633 177.135 174.678C178.943 172.728 181.338 171.739 184.255 171.739C186.75 171.739 189.181 172.584 191.481 174.253L191.799 174.484V167.156L191.697 167.099C190.831 166.614 189.651 166.214 188.185 165.91C186.726 165.608 185.298 165.455 183.942 165.455ZM161.304 166.233H153.714V198.502H161.304V166.233ZM157.587 152.486C156.337 152.486 155.248 152.912 154.353 153.754C153.454 154.599 152.998 155.664 152.998 156.919C152.998 158.155 153.448 159.2 154.339 160.023C155.223 160.843 156.316 161.259 157.587 161.259C158.858 161.259 159.955 160.843 160.85 160.024C161.751 159.2 162.208 158.156 162.208 156.919C162.208 155.707 161.763 154.654 160.887 153.788C160.012 152.924 158.901 152.486 157.587 152.486ZM138.648 163.852V198.502H146.394V153.474H135.673L122.045 186.919L108.82 153.474H97.6616V198.501H104.941V163.849H105.191L119.157 198.502H124.65L138.398 163.852H138.648Z" fill="#706D6E"/>
<path d="M35.7085 174.136H0V138.427H35.7085V174.136Z" fill="#F1511B"/>
<path d="M75.1346 174.136H39.4268V138.427H75.1346V174.136Z" fill="#80CC28"/>
<path d="M35.7075 213.576H0V177.868H35.7075V213.576Z" fill="#00ADEF"/>
<path d="M75.1346 213.576H39.4268V177.868H75.1346V213.576Z" fill="#FBBC09"/>
</g>
<defs>
<clipPath id="clip0_142_7">
<rect width="352" height="352" fill="white"/>
</clipPath>
</defs>
</svg>
