<svg width="182" height="108" viewBox="0 0 182 108" fill="none" xmlns="http://www.w3.org/2000/svg">
<path d="M176.243 101.177C176.243 102.645 174.881 103.63 173.268 103.63V103.621C171.61 103.63 170.273 102.645 170.273 101.177C170.273 99.7104 171.61 98.728 173.268 98.728C174.881 98.7276 176.243 99.71 176.243 101.177V101.177ZM177.45 101.177C177.45 99.1624 175.472 97.9931 173.268 97.9931C171.049 97.9931 169.071 99.1624 169.071 101.177C169.071 103.19 171.05 104.364 173.268 104.364C175.472 104.364 177.45 103.19 177.45 101.177ZM172.575 101.446H173.022L174.06 102.888H175.199L174.049 101.386C174.643 101.352 175.132 101.129 175.132 100.496C175.132 99.71 174.446 99.4578 173.287 99.4578H171.609V102.888H172.574L172.575 101.446ZM172.575 100.866V100.04H173.246C173.611 100.04 174.108 100.063 174.108 100.416C174.108 100.799 173.851 100.866 173.42 100.866H172.575V100.866ZM149.29 83.6296L154.503 94.9143H143.915L149.29 83.6296V83.6296ZM143.706 79.2355L131.691 103.321H140.175L142.075 99.065H156.294L158.093 103.321H167.303L155.198 79.2324L143.706 79.2355ZM119.584 103.33H128.192V79.2281L119.583 79.2266L119.584 103.33ZM59.829 79.2266L52.6475 98.3294L45.7681 79.2281L36.4807 79.2266L46.3058 103.33H58.7064L68.6108 79.2266H59.829ZM94.622 84.475H98.3219C103.689 84.475 107.16 86.3815 107.16 91.329C107.16 96.2774 103.689 98.1842 98.3219 98.1842H94.622V84.475V84.475ZM86.0867 79.2266V103.33H100.041C107.476 103.33 109.904 102.353 112.529 100.159C114.383 98.619 115.582 95.2385 115.582 91.5439C115.582 88.1548 114.568 85.1336 112.798 83.2513C109.61 79.8852 105.017 79.2266 98.1626 79.2266H86.0867V79.2266ZM4.5498 79.1931V103.33H13.2302V85.0028L19.9561 85.0044C22.1832 85.0044 23.7707 85.4438 24.8431 86.35C26.2034 87.4962 26.7588 89.3467 26.7588 92.7318V103.33H35.1701V89.9943C35.1701 80.4764 27.5026 79.1931 20.0004 79.1931H4.5498V79.1931ZM72.2335 79.2266L72.2369 103.33H80.8406V79.2266H72.2335Z" fill="black"/>
<path d="M27.6821 31.2337C27.6821 31.2337 38.7529 18.3099 60.8576 16.9729V12.2842C36.3738 13.84 15.1719 30.247 15.1719 30.247C15.1719 30.247 27.1803 57.7128 60.8576 60.2281V55.2443C36.1436 52.7844 27.6821 31.2337 27.6821 31.2337V31.2337ZM60.8576 45.3329V49.8974C42.1793 47.2623 36.9947 31.9004 36.9947 31.9004C36.9947 31.9004 45.9629 24.0398 60.8576 22.7651V27.7734C60.8463 27.7734 60.8384 27.7707 60.8291 27.7707C53.0115 27.0284 46.9045 32.8066 46.9045 32.8066C46.9045 32.8066 50.3274 42.5335 60.8576 45.3329ZM60.8576 3.63623V12.2842C61.5763 12.2406 62.2951 12.2036 63.0177 12.1842C90.8531 11.4419 108.99 30.247 108.99 30.247C108.99 30.247 88.1592 50.2878 66.4574 50.2878C64.4685 50.2878 62.6065 50.1418 60.8576 49.8966V55.2443C62.4044 55.4016 63.9622 55.4811 65.5217 55.4825C85.7167 55.4825 100.321 47.3222 114.463 37.6642C116.807 39.1499 126.406 42.7643 128.379 44.3462C114.933 53.2534 83.5969 60.4332 65.8312 60.4332C64.1187 60.4332 62.4741 60.3511 60.8576 60.2277V67.7422H137.617V3.63623H60.8576ZM60.8576 22.7647V16.9733C61.5689 16.934 62.2857 16.9036 63.0177 16.8853C83.0341 16.3879 96.1662 30.4949 96.1662 30.4949C96.1662 30.4949 81.9823 46.0806 66.7742 46.0806C64.5856 46.0806 62.6232 45.8023 60.8571 45.3325V27.773C68.6496 28.518 70.2179 31.2414 74.9027 37.4205L85.3226 30.4692C85.3226 30.4692 77.7166 22.5767 64.895 22.5767C63.5008 22.5763 62.1672 22.6538 60.8576 22.7647" fill="#77B900"/>
</svg>
