<svg width="24" height="24" viewBox="0 0 24 24" fill="none" xmlns="http://www.w3.org/2000/svg">
<path d="M6.047 9.375C6.84265 9.375 7.60571 9.05893 8.16832 8.49632M6.047 9.375C5.25135 9.375 4.48829 9.05893 3.92568 8.49632M6.047 9.375V11.625M8.16832 8.49632C8.73093 7.93371 9.047 7.17065 9.047 6.375M8.16832 8.49632L9.759 10.087M9.047 6.375C9.047 5.57935 8.73093 4.81629 8.16832 4.25368M9.047 6.375H11.297M8.16832 4.25368C7.60571 3.69107 6.84265 3.375 6.047 3.375M8.16832 4.25368L9.759 2.663M6.047 3.375C5.25135 3.375 4.48829 3.69107 3.92568 4.25368M6.047 3.375V1.125M3.92568 4.25368C3.36307 4.81629 3.047 5.57935 3.047 6.375M3.92568 4.25368L2.335 2.663M3.047 6.375C3.047 7.17065 3.36307 7.93371 3.92568 8.49632M3.047 6.375H0.796997M3.92568 8.49632L2.335 10.087M5.547 1.125H6.547M9.406 2.309L10.113 3.016M11.297 5.875V6.875M10.113 9.734L9.406 10.441M6.547 11.625H5.547M2.688 10.441L1.981 9.734M0.796997 6.875V5.875M1.981 3.016L2.688 2.309M18.146 9.1C18.7976 9.65262 19.3266 10.3353 19.6991 11.1042C20.0716 11.8732 20.2793 12.7115 20.3089 13.5654C20.3386 14.4192 20.1895 15.2699 19.8713 16.0629C19.5531 16.8558 19.0727 17.5735 18.461 18.17C17.2655 19.337 15.6611 19.9902 13.9905 19.9902C12.3199 19.9902 10.7155 19.337 9.52 18.17C8.80465 17.4683 8.27005 16.6036 7.962 15.65" stroke="#121212" stroke-width="1.5" stroke-linecap="round" stroke-linejoin="round"/>
<path d="M16.151 11.0539C15.9804 11.2209 15.7512 11.3143 15.5125 11.3143C15.2738 11.3143 15.0446 11.2209 14.874 11.0539L13.6 9.79994C13.5162 9.71841 13.4497 9.62092 13.4042 9.51323C13.3587 9.40554 13.3353 9.28984 13.3353 9.17294C13.3353 9.05605 13.3587 8.94035 13.4042 8.83266C13.4497 8.72497 13.5162 8.62748 13.6 8.54594L17.432 4.78194C17.6029 4.61549 17.832 4.52234 18.0705 4.52234C18.309 4.52234 18.5381 4.61549 18.709 4.78194L19.986 6.03694C20.0698 6.11848 20.1363 6.21597 20.1818 6.32366C20.2273 6.43135 20.2507 6.54705 20.2507 6.66394C20.2507 6.78084 20.2273 6.89654 20.1818 7.00423C20.1363 7.11192 20.0698 7.20941 19.986 7.29094L16.151 11.0539Z" stroke="#121212" stroke-width="1.5" stroke-linecap="round" stroke-linejoin="round"/>
<path d="M19.168 5.23597L21.758 2.64397M21.758 2.64397L20.313 1.19897M21.758 2.64397L23.203 4.08897M5.797 15.65H10.855M6.585 22.875H20.313M13.81 19.985V22.875" stroke="#121212" stroke-width="1.5" stroke-linecap="round" stroke-linejoin="round"/>
</svg>
