<svg width="357" height="357" viewBox="0 0 357 357" fill="none" xmlns="http://www.w3.org/2000/svg">
<path fill-rule="evenodd" clip-rule="evenodd" d="M192.852 176.952C192.852 176.952 189.964 175.166 188.179 174.475C188.179 174.475 182.652 171.914 181.556 170.695C181.556 170.695 179.402 168.665 180.663 166.308C180.663 166.308 181.191 164.765 183.467 164.765C183.467 164.765 186.431 164.928 186.431 167.363V170.799H197.05L197.032 165.739C197.032 165.739 197.849 157.453 184.523 157.088C184.523 157.088 174.042 156.399 171.036 162.044C171.036 162.044 169.856 163.304 169.856 167.689V170.858C169.856 170.858 169.736 174.514 171.603 176.87C171.603 176.87 172.659 178.415 175.259 180.119C175.259 180.119 180.539 182.962 183.708 184.59C183.708 184.59 186.907 186.416 186.486 189.322C186.486 189.322 186.225 192.305 183.136 192.183C183.136 192.183 180.311 192.057 180.311 189.131V185.697H168.995V190.685C168.995 190.685 168.678 200.223 183.219 200.223C183.219 200.223 197.113 200.504 197.762 190.435V186.373C197.76 186.373 198.252 180.202 192.852 176.952ZM138.482 158.275L134.926 180.559H134.094L130.698 158.475H112.958L112.069 198.83H122.573L122.699 168.425H123.525L129.092 198.825H140.142L145.64 168.436H146.372L146.626 198.83H157.184L156.047 158.275H138.482ZM75.9594 158.444L68.9715 198.784H80.2785L84.4179 167.506H85.3477L89.4852 198.784H100.79L93.8043 158.444H75.9594ZM313.215 176.396V182.347H316.115V188.735C316.115 191.857 313.446 191.915 313.446 191.915C310.202 191.915 310.324 188.947 310.324 188.947V166.852C310.324 164.576 313.204 164.454 313.204 164.454C315.967 164.454 315.986 167.169 315.986 167.169V170.529H326.631C326.98 163.97 325.672 162.383 325.672 162.383C323.031 156.453 313.041 156.777 313.041 156.777C297.689 156.777 299.393 168.556 299.393 168.556V189.92C299.722 200.968 314.85 199.845 315.106 199.836C321.835 199.091 323.866 196.952 323.866 196.952C325.737 195.563 326.218 193.639 326.218 193.639C326.754 192.518 326.887 188.947 326.887 188.947V176.396H313.215ZM277.927 182.962H277.464L266.661 158.286H253.735V198.834H264.255L263.625 174.162H264.096L275.288 198.834H287.821V158.283H277.168L277.927 182.962ZM228.056 188.731C228.056 188.731 228.208 192.059 225.122 192.059C225.122 192.059 221.878 192.233 221.878 188.814L221.844 158.31H210.306V188.572C210.306 188.572 209.122 200.025 225.285 200.025C225.285 200.025 239.332 200.191 239.332 189.098V158.312H228.056V188.731ZM53.9623 176.952C53.9623 176.952 51.0786 175.166 49.2913 174.477C49.2913 174.477 43.7684 171.918 42.672 170.697C42.672 170.697 40.518 168.663 41.7811 166.311C41.7811 166.311 42.3071 164.769 44.5815 164.769C44.5815 164.769 47.5467 164.93 47.5467 167.365V170.801H58.1702L58.1498 165.739C58.1498 165.739 58.961 157.453 45.6409 157.09C45.6409 157.09 44.637 157.025 43.1646 157.099C43.1646 157.099 35.0951 157.532 32.2096 161.959C32.1929 161.992 32.1688 162.016 32.1521 162.046C32.1521 162.046 30.9742 163.304 30.9742 167.691V170.86C30.9742 170.86 30.852 174.516 32.7207 176.872C32.7207 176.872 33.7764 178.417 36.3767 180.12C36.3767 180.12 41.6552 182.963 44.8241 184.591C44.8241 184.591 48.0263 186.414 47.6022 189.323C47.6022 189.323 47.3411 192.307 44.2536 192.185C44.2536 192.185 41.4292 192.059 41.4292 189.133V185.697H30.1111V190.688C30.1111 190.688 29.7944 200.227 44.3351 200.227C44.3351 200.227 58.2258 200.508 58.8795 190.438V186.381C58.8795 186.377 59.3648 180.202 53.9623 176.952Z" fill="black"/>
</svg>
