<svg width="76" height="76" viewBox="0 0 76 76" fill="none" xmlns="http://www.w3.org/2000/svg">
<path d="M55.613 29.203L53.9473 32.1417C52.3798 34.9062 51.5945 36.2869 49.8877 36.4072C48.1777 36.5275 47.4557 35.5395 46.0085 33.5635C44.3998 31.3501 43.3681 28.7708 43.0065 26.0585C42.6677 23.5284 42.4998 22.2649 42.0882 21.641C41.4358 20.6499 40.1185 20.1052 39.1368 19.5289C36.5497 18.0089 35.2545 17.2489 34.9157 15.9537C34.5737 14.6649 35.321 13.3475 36.8157 10.7129C38.3103 8.07819 39.0577 6.76086 40.3275 6.41569C41.5942 6.06736 42.8925 6.83052 45.4797 8.35052C46.4613 8.93002 47.5823 9.81352 48.754 9.89586C49.4887 9.94652 50.6508 9.46202 52.972 8.49619C55.4621 7.45367 58.1792 7.0719 60.8602 7.38786C63.2668 7.67602 64.4702 7.82169 65.2175 9.38286C65.9712 10.9504 65.1858 12.331 63.6183 15.0955L61.9527 18.0279M55.613 29.203L56.9873 30.0105C57.7087 30.433 58.5072 30.7072 59.3359 30.8172C60.1646 30.9272 61.0069 30.8706 61.8135 30.6509C62.6201 30.4312 63.3747 30.0527 64.0332 29.5377C64.6917 29.0226 65.2407 28.3813 65.6482 27.6514C66.4915 26.1703 66.7208 24.4178 66.2869 22.7696C65.8529 21.1215 64.7903 19.7091 63.327 18.8354L61.9527 18.0279M55.613 29.203L61.9527 18.0279M19 38L41.1667 22.1667M22.1667 69.6667H44.3333M19 47.5L34.8333 69.6667M22.1667 41.1667C22.1667 42.8464 21.4994 44.4573 20.3117 45.645C19.1239 46.8328 17.513 47.5 15.8333 47.5C14.1536 47.5 12.5427 46.8328 11.355 45.645C10.1673 44.4573 9.5 42.8464 9.5 41.1667C9.5 39.487 10.1673 37.8761 11.355 36.6883C12.5427 35.5006 14.1536 34.8334 15.8333 34.8334C17.513 34.8334 19.1239 35.5006 20.3117 36.6883C21.4994 37.8761 22.1667 39.487 22.1667 41.1667Z" stroke="#121212" stroke-width="1.5" stroke-linecap="round" stroke-linejoin="round"/>
</svg>
