<svg width="186" height="75" viewBox="0 0 186 75" fill="none" xmlns="http://www.w3.org/2000/svg">
<path d="M17.9177 55.8687C16.5966 54.4502 15.5628 52.7422 14.8161 50.7446C14.0693 48.747 13.6961 46.5326 13.6961 44.1006V6.58179H4.6499V44.6216C4.6499 48.2116 5.23858 51.4683 6.41613 54.3922C7.59349 57.3163 9.20187 59.8201 11.2407 61.9046C13.2795 63.9891 15.692 65.5956 18.4776 66.7246C21.2633 67.8536 24.2643 68.4182 27.4808 68.4182C30.6399 68.4182 33.5832 67.8392 36.3116 66.6814C39.0398 65.5232 41.4092 63.873 43.4194 61.7309V67.3761H52.3794V6.58179H43.3332V44.1006C43.3332 46.5326 42.96 48.7325 42.2133 50.7012C41.4666 52.6698 40.4183 54.3632 39.0686 55.7818C37.7189 57.2002 36.1395 58.3002 34.3302 59.082C32.5208 59.8637 30.5825 60.2546 28.5147 60.2546C26.3895 60.2546 24.4223 59.8783 22.613 59.1256C20.8039 58.3728 19.2388 57.2873 17.9177 55.8687Z" fill="#010202"/>
<path fill-rule="evenodd" clip-rule="evenodd" d="M67.9725 28.7282V6.58179H59.271V67.3759H67.8864V61.8175C69.8966 63.844 72.2372 65.4507 74.908 66.6376C77.5788 67.8246 80.4648 68.4181 83.5664 68.4181C86.7828 68.4181 89.7981 67.8102 92.6126 66.5943C95.4269 65.3785 97.8678 63.7283 99.9356 61.6438C102.003 59.5597 103.64 57.1134 104.847 54.3051C106.053 51.4971 106.656 48.5008 106.656 45.3165C106.656 42.132 106.053 39.1213 104.847 36.284C103.64 33.447 102.003 30.9864 99.9356 28.902C97.8678 26.8175 95.4269 25.1673 92.6126 23.9514C89.7981 22.7356 86.783 22.1277 83.5664 22.1277C80.465 22.1277 77.5931 22.7211 74.9511 23.9082C72.3091 25.0952 69.9828 26.7018 67.9725 28.7282ZM72.1941 56.1727C70.8157 54.7831 69.7386 53.1619 68.9633 51.309C68.1879 49.4563 67.8002 47.4588 67.8004 45.3165C67.8004 43.1742 68.2024 41.1621 69.0065 39.2804C69.8106 37.3986 70.902 35.7631 72.2803 34.3735C73.659 32.9841 75.2672 31.8985 77.1051 31.1167C78.943 30.335 80.8958 29.9441 82.9635 29.9441C85.0311 29.9441 86.9837 30.3352 88.8218 31.1167C90.6599 31.8983 92.2536 32.9841 93.6035 34.3735C94.9532 35.7631 96.0301 37.3986 96.8342 39.2804C97.6383 41.1621 98.0404 43.1742 98.0404 45.3165C98.0404 47.4588 97.6383 49.4563 96.8342 51.309C96.0301 53.1619 94.9532 54.7833 93.6035 56.1727C92.2534 57.5625 90.6597 58.6625 88.8218 59.473C86.9839 60.2836 85.0313 60.6889 82.9635 60.6889C80.8383 60.6889 78.8568 60.2836 77.0187 59.473C75.1808 58.6625 73.5726 57.5623 72.1941 56.1727Z" fill="#010202"/>
<path fill-rule="evenodd" clip-rule="evenodd" d="M111.566 36.3712C112.714 33.592 114.294 31.1458 116.304 29.0325C118.314 26.9192 120.698 25.2546 123.455 24.0387C126.212 22.8229 129.199 22.215 132.415 22.215C135.574 22.215 138.503 22.7941 141.203 23.9519C143.902 25.1099 146.228 26.7167 148.181 28.7721C150.134 30.8274 151.656 33.2593 152.747 36.0674C153.839 38.8756 154.384 41.9297 154.384 45.2301V48.0962H118.63C118.918 49.891 119.492 51.5556 120.354 53.0897C121.215 54.624 122.292 55.9558 123.584 57.0848C124.877 58.214 126.341 59.097 127.978 59.7337C129.615 60.3705 131.352 60.6892 133.19 60.6892C138.417 60.6892 142.639 58.5178 145.855 54.1753L152.144 58.8651C149.962 61.818 147.263 64.134 144.046 65.813C140.83 67.4921 137.211 68.3316 133.191 68.3316C129.917 68.3316 126.858 67.7524 124.015 66.5946C121.172 65.4368 118.702 63.8154 116.606 61.7309C114.51 59.6464 112.858 57.2003 111.652 54.3923C110.446 51.5843 109.843 48.5299 109.843 45.2297C109.843 42.1033 110.417 39.1504 111.566 36.3712ZM123.67 32.9405C121.229 34.996 119.607 37.7318 118.803 41.1478H145.597C144.85 37.7318 143.256 34.996 140.815 32.9405C138.374 30.8853 135.517 29.8575 132.243 29.8575C128.969 29.8575 126.111 30.8853 123.67 32.9405Z" fill="#010202"/>
<path d="M170.667 33.9393C168.829 35.9657 167.91 38.7159 167.91 42.19V67.3764H159.208V23.0833H167.824V28.5548C168.915 26.7599 170.337 25.3413 172.088 24.2992C173.84 23.2568 175.922 22.7357 178.335 22.7357H181.35V30.8995H177.731C174.86 30.8997 172.505 31.9128 170.667 33.9393Z" fill="#010202"/>
</svg>
