<svg width="75" height="75" viewBox="0 0 75 75" fill="none" xmlns="http://www.w3.org/2000/svg">
<path d="M72.6562 18.75V21.0937C72.6562 21.4045 72.5328 21.7026 72.313 21.9224C72.0932 22.1422 71.7952 22.2656 71.4844 22.2656H67.9688V24.0234C67.9688 24.9942 67.1817 25.7812 66.2109 25.7812H8.78906C7.81831 25.7812 7.03125 24.9942 7.03125 24.0234V22.2656H3.51562C3.20482 22.2656 2.90675 22.1422 2.68698 21.9224C2.46721 21.7026 2.34375 21.4045 2.34375 21.0937V18.75C2.34375 18.5182 2.41252 18.2915 2.54136 18.0988C2.67019 17.906 2.85331 17.7558 3.06753 17.6672L37.0519 4.77655C37.3388 4.65782 37.6612 4.65782 37.9481 4.77655L71.9325 17.6672C72.1467 17.7558 72.3298 17.906 72.4586 18.0988C72.5875 18.2915 72.6562 18.5182 72.6562 18.75ZM69.1406 63.2812H5.85938C3.91772 63.2812 2.34375 64.8552 2.34375 66.7969V69.1406C2.34375 69.4514 2.46721 69.7495 2.68698 69.9693C2.90675 70.189 3.20482 70.3125 3.51562 70.3125H71.4844C71.7952 70.3125 72.0932 70.189 72.313 69.9693C72.5328 69.7495 72.6562 69.4514 72.6562 69.1406V66.7969C72.6562 64.8552 71.0823 63.2812 69.1406 63.2812ZM14.0625 28.125V56.25H8.78906C7.81831 56.25 7.03125 57.0371 7.03125 58.0078V60.9375H67.9688V58.0078C67.9688 57.0371 67.1817 56.25 66.2109 56.25H60.9375V28.125H51.5625V56.25H42.1875V28.125H32.8125V56.25H23.4375V28.125H14.0625Z" fill="#121212"/>
</svg>
